<svg width="1920" height="1502" viewBox="0 0 1920 1502" fill="none" xmlns="http://www.w3.org/2000/svg">
<path d="M932.077 505.5L-295.423 1039C-333.59 1086 -387.023 1225 -295.423 1405C-180.923 1630 577.577 1405 585.077 1287C592.577 1169 1027.58 1130.5 1054.08 1180C1080.58 1229.5 1465.58 1332.5 1607.08 1069.5C1748.58 806.5 2091.08 1039 2358.08 913.5C2571.68 813.1 2533.41 620 2487.58 536L1858.58 463.5L932.077 505.5Z" fill="#ACE1FF" stroke="#7FD1FF"/>
<path d="M-182.424 729.5V1034.5V1274.5C-50.0905 1092.83 236.676 770.1 325.076 932.5C435.576 1135.5 1082.58 1034.5 1156.08 932.5C1229.58 830.5 1359.58 600.5 1553.08 729.5C1707.88 832.7 1900.91 772.5 1978.08 729.5L2356.58 462L1978.08 222L500.576 462L-182.424 729.5Z" fill="#7FD1FF"/>
<path d="M-182.424 1034.5V729.5M-182.424 729.5L500.576 462L1978.08 222L2356.58 462L1978.08 729.5C1900.91 772.5 1707.88 832.7 1553.08 729.5C1359.58 600.5 1229.58 830.5 1156.08 932.5C1082.58 1034.5 435.576 1135.5 325.076 932.5C236.676 770.1 -50.0905 1092.83 -182.424 1274.5V729.5Z" stroke="#7FD1FF"/>
<path d="M334.576 342L-283.924 609.5V831C-216.257 874.167 -64.3238 934.6 2.07617 831C85.0762 701.5 510.076 609.5 611.576 702C713.076 794.5 953.076 702 1267.08 508C1581.08 314 1959.58 462 2255.08 508C2491.48 544.8 2427.24 221.667 2365.58 55.5L1267.08 194L334.576 342Z" fill="#007FC4"/>
<path d="M2079.58 0L-293.424 277C-293.424 627.5 270.076 720.5 445.076 480.5C620.076 240.5 1959.58 332.5 2079.58 166.5C2175.58 33.7 2119.58 0.166667 2079.58 0Z" fill="#0060AA"/>
</svg>
