<svg width="1920" height="1678" viewBox="0 0 1920 1678" fill="none" xmlns="http://www.w3.org/2000/svg">
<path d="M955.462 877.546L2220.99 717.933C2263.29 693.422 2329.61 612.058 2256.51 482.684C2165.14 320.966 1393.3 352.323 1374.43 427.048C1355.56 501.773 921.701 461.563 900.303 425.789C878.905 390.016 508.219 266.321 342.777 414.237C177.334 562.152 -138.757 361.567 -414.946 402.363C-635.897 435 -616.803 564.83 -579.637 625.666L35.2732 766.191L955.462 877.546Z" fill="#ACE1FF" stroke="#7FD1FF"/>
<path d="M2079.21 899.992L2108.82 703.952L2132.11 549.69C1983.63 646.697 1668.75 811.314 1597.11 693.73C1507.55 546.75 858 515.055 775.423 569.641C692.846 624.226 541.978 752.648 363.17 640.838C220.123 551.39 23.4102 561.259 -57.0653 577.374L-457.287 692.792L-106.327 903.573L1377.9 969.94L2079.21 899.992Z" fill="#7FD1FF"/>
<path d="M2108.82 703.952L2079.21 899.992M2079.21 899.992L1377.9 969.94L-106.327 903.573L-457.287 692.792L-57.0653 577.374C23.4101 561.259 220.123 551.39 363.17 640.838C541.978 752.648 692.846 624.226 775.423 569.641C858 515.055 1507.55 546.75 1597.11 693.73C1668.75 811.314 1983.63 646.697 2132.11 549.69L2079.21 899.992Z" stroke="#7FD1FF"/>
<path d="M1530.4 1071.86L2167.93 992.279L2189.43 849.909C2126.71 812.059 1982.35 750.528 1906.63 807.202C1811.99 878.045 1382.83 873.715 1291.45 799.103C1200.06 724.492 953.774 748.109 624.463 825.915C295.153 903.722 -64.7374 752.074 -352.459 678.382C-582.636 619.428 -550.489 836.715 -505.644 952.728L593.984 1027.74L1530.4 1071.86Z" fill="#007FC4"/>
<path d="M-228.238 1031.11L2145.04 1207.41C2179.07 982.128 1630.91 838.207 1434.58 966.336C1238.24 1094.47 -77.3081 835.311 -212.076 924.089C-319.89 995.112 -267.773 1025.03 -228.238 1031.11Z" fill="#0060AA"/>
<rect x="-291" y="1007" width="2607" height="671" fill="url(#paint0_linear_469_154)"/>
<defs>
<linearGradient id="paint0_linear_469_154" x1="1012.5" y1="1007" x2="1012.5" y2="1678" gradientUnits="userSpaceOnUse">
<stop offset="0.286458" stop-color="#0060AA"/>
<stop offset="1" stop-color="white"/>
</linearGradient>
</defs>
</svg>
