<svg width="699" height="336" viewBox="0 0 699 336" fill="none" xmlns="http://www.w3.org/2000/svg">
<path fill-rule="evenodd" clip-rule="evenodd" d="M619.436 122.183C619.436 129.97 618.402 137.587 616.427 144.97C665.085 160.472 699.001 195.328 699.001 235.842C699.001 290.767 636.664 335.293 559.769 335.293C528.32 335.293 499.307 327.845 475.998 315.285C443.13 327.787 401.049 335.293 355.18 335.293C301.911 335.293 253.751 325.17 219.197 308.855C195.99 325.17 163.644 335.293 127.866 335.293C57.2475 335.293 0 295.855 0 247.207C0 200.523 52.7189 162.321 119.382 159.313C120.784 111.891 159.667 73.8785 207.428 73.8785C234.292 73.8785 258.348 85.9043 274.504 104.866C286.435 45.5875 358.718 0 446.106 0C541.833 0 619.436 54.7032 619.436 122.183Z" fill="url(#paint0_linear_435_9)"/>
<defs>
<linearGradient id="paint0_linear_435_9" x1="150.598" y1="113.659" x2="656.379" y2="298.354" gradientUnits="userSpaceOnUse">
<stop stop-color="white"/>
<stop offset="1" stop-color="#E1FFF8"/>
</linearGradient>
</defs>
</svg>
