<svg width="228" height="110" viewBox="0 0 228 110" fill="none" xmlns="http://www.w3.org/2000/svg">
<path fill-rule="evenodd" clip-rule="evenodd" d="M202.048 39.8536C202.048 42.3937 201.711 44.8784 201.066 47.2865C216.937 52.3429 228 63.7121 228 76.9269C228 94.8424 207.667 109.366 182.585 109.366C172.327 109.366 162.864 106.937 155.261 102.84C144.54 106.918 130.814 109.366 115.853 109.366C98.4772 109.366 82.7686 106.064 71.4978 100.742C63.9278 106.064 53.3773 109.366 41.7073 109.366C18.673 109.366 0 96.5022 0 80.6341C0 65.4065 17.196 52.9457 38.9403 51.9647C39.3975 36.4966 52.0804 24.0976 67.6593 24.0976C76.4218 24.0976 84.2681 28.0202 89.5381 34.2052C93.4296 14.8697 117.007 0 145.511 0C176.735 0 202.048 17.8431 202.048 39.8536Z" fill="url(#paint0_linear_435_15)"/>
<defs>
<linearGradient id="paint0_linear_435_15" x1="49.1219" y1="37.0732" x2="214.097" y2="97.3169" gradientUnits="userSpaceOnUse">
<stop stop-color="white"/>
<stop offset="1" stop-color="#E1FFF8"/>
</linearGradient>
</defs>
</svg>
