<svg width="401" height="192" viewBox="0 0 401 192" fill="none" xmlns="http://www.w3.org/2000/svg">
<path fill-rule="evenodd" clip-rule="evenodd" d="M354.71 69.9661C354.71 74.4254 354.119 78.7872 352.987 83.0148C380.85 91.8917 400.272 111.851 400.272 135.051C400.272 166.503 364.576 192 320.543 192C302.535 192 285.921 187.735 272.573 180.543C253.752 187.702 229.655 192 203.389 192C172.885 192 145.307 186.203 125.52 176.861C112.231 186.203 93.7081 192 73.2203 192C32.7819 192 0 169.417 0 141.559C0 114.826 30.1886 92.9505 68.3622 91.2279C69.1648 64.0725 91.4306 42.3053 118.78 42.3053C134.164 42.3053 147.939 49.192 157.191 60.0505C164.023 26.1052 205.415 0 255.456 0C310.273 0 354.71 31.3249 354.71 69.9661Z" fill="url(#paint0_linear_435_21)"/>
<defs>
<linearGradient id="paint0_linear_435_21" x1="86.2374" y1="65.0848" x2="375.865" y2="170.848" gradientUnits="userSpaceOnUse">
<stop stop-color="white"/>
<stop offset="1" stop-color="#E1FFF8"/>
</linearGradient>
</defs>
</svg>
