<svg width="1709" height="822" viewBox="0 0 1709 822" fill="none" xmlns="http://www.w3.org/2000/svg">
<path d="M1455.65 485.65C1551.58 485.65 1629.35 402.432 1629.35 299.777C1629.35 197.122 1551.58 113.904 1455.65 113.904C1359.71 113.904 1281.95 197.122 1281.95 299.777C1281.95 402.432 1359.71 485.65 1455.65 485.65Z" fill="black"/>
<path d="M1455.65 385.291C1499.79 385.291 1535.56 347.004 1535.56 299.775C1535.56 252.546 1499.79 214.26 1455.65 214.26C1411.51 214.26 1375.73 252.546 1375.73 299.775C1375.73 347.004 1411.51 385.291 1455.65 385.291Z" fill="#F74D66"/>
<path d="M251.675 485.65C347.607 485.65 425.375 402.432 425.375 299.777C425.375 197.122 347.607 113.904 251.675 113.904C155.743 113.904 77.9746 197.122 77.9746 299.777C77.9746 402.432 155.743 485.65 251.675 485.65Z" fill="white" stroke="black" stroke-width="4" stroke-miterlimit="10"/>
<path d="M251.679 385.291C295.815 385.291 331.594 347.004 331.594 299.775C331.594 252.546 295.815 214.26 251.679 214.26C207.543 214.26 171.764 252.546 171.764 299.775C171.764 347.004 207.543 385.291 251.679 385.291Z" fill="#F74D66"/>
<path d="M1130.71 185.526L1158.39 162.017L1191.16 123.241L1217.13 81.3264L1234.33 44.7355L1247.64 8.0127L1255.19 46.2461L1262.63 93.8215L1268.32 139.476L1272.92 185.526L1276.19 226.942L1276.91 238.454L1220.13 214.256L1172.7 197.845L1130.71 185.526Z" fill="#E0E0E0"/>
<path d="M425.389 238.454L428.692 193.357L435.298 128.022L442.644 73.4216L454.649 8.0127L464.079 34.9975L484.595 80.2411L511.142 123.241L539.265 157.28L571.596 185.526L543.651 193.797L482.156 214.256L425.389 238.454Z" fill="#E0E0E0"/>
<path d="M1247.63 8.01467L1255.18 46.2481L1264.25 106.025L1270.43 159.614L1276.89 238.456L1220.11 214.258C1220.11 214.258 1255.36 165.363 1247.61 8" fill="#B5B5B5"/>
<path d="M454.649 8.01367L447.358 44.7658L440.163 90.2734L434.736 132.819L430.35 186.348L425.389 238.455" fill="#B5B5B5"/>
<path d="M425.389 238.456L482.169 214.258C482.169 214.258 441.287 154.319 454.663 8" fill="#B5B5B5"/>
<path d="M1130.68 185.526C1130.68 185.526 1206.99 137.203 1247.63 8.0127C1269.68 107.387 1276.9 238.469 1276.9 238.469L1220.12 214.271L1158.62 193.812L1130.68 185.541V185.526Z" stroke="black" stroke-width="4" stroke-miterlimit="10"/>
<path d="M571.579 185.526C571.579 185.526 495.268 137.203 454.632 8.0127C432.58 107.387 425.357 238.469 425.357 238.469L482.138 214.271L543.634 193.812L571.579 185.541V185.526Z" stroke="black" stroke-width="4" stroke-miterlimit="10"/>
<path d="M854.465 149.437C383.663 149.437 2 450.493 2 821.857L1706.94 821.857C1706.94 450.493 1325.28 149.437 854.479 149.437H854.465Z" fill="white" stroke="black" stroke-width="4" stroke-miterlimit="10"/>
<path d="M1252.16 226.941C1252.16 226.941 1207.33 266.392 1263.09 291.25C1318.84 316.109 1396.23 333.473 1405.51 376.135C1414.79 418.798 1484.62 555.834 1592.89 485.659C1579.17 467.605 1552.95 436.602 1552.95 436.602L1496.68 379.655L1448.42 339.515L1376.88 291.661L1321.42 259.191L1252.18 226.941H1252.16Z" fill="black"/>
<path d="M63.3172 570.985C63.3172 570.985 216.734 587.734 221.38 682.137C226.026 776.539 266.264 784.825 287.932 794.769C309.6 804.712 298.773 821.842 298.773 821.842H2L4.30248 772.066L12.4708 716.176L27.8069 656.985L53.052 589.787L63.3172 570.971V570.985Z" fill="black"/>
<path d="M107.028 196.82C107.028 196.82 139.742 219.185 125.036 240.715C110.331 262.244 90.5951 266.805 93.3088 294.127C96.0224 321.449 79.6035 325.204 79.6035 325.204L77.9863 299.744L79.8091 272.715L84.2085 250.233L91.7053 227.193L107.028 196.806V196.82Z" fill="black"/>
<path d="M743.336 543.018C743.336 543.018 848.194 477.594 965.525 543.018C1082.86 608.441 1105.33 614.659 1216.43 629.97C1327.52 645.296 1217.67 722.731 1120.31 723.552C1022.95 724.373 685.28 755.846 571.061 710.294C456.842 664.743 444.987 659.038 559.823 624.412C674.659 589.786 653.443 603.044 743.322 543.003L743.336 543.018Z" fill="#EB9D28" stroke="black" stroke-width="5.08" stroke-miterlimit="10"/>
<path d="M1263.08 656.532C1212.34 669.012 1143.42 668.895 995.499 649.023C847.578 629.151 826.979 641.573 688.419 665.17C549.86 688.767 480.771 657.25 480.771 657.25" stroke="black" stroke-width="5.08" stroke-miterlimit="10"/>
<path d="M479.348 656.529L509.485 663.73C509.485 663.73 562.881 672.837 563.47 672.837C564.06 672.837 620.553 673.952 620.553 673.952L667.767 668.907L732.977 655.649L789.086 645.501L845.387 639.708L890.669 639.121L936.527 642.406L975.614 647.173L1034.25 654.007L1081.06 658.978L1134.07 663.539L1180.12 666.018L1219.98 665.607C1219.98 665.607 1253.84 658.568 1254.42 658.362C1255 658.157 1263.09 656.925 1263.09 656.925L1260.41 669.332C1260.41 669.332 1153.73 691.551 1092.33 679.965C1030.93 668.379 949.41 663.407 907.102 666.707C864.794 670.007 757.989 677.193 730.647 679.965C703.305 682.737 522.204 703.709 493.82 677.208C486.515 672.031 481.828 667.426 481.828 667.426L479.361 656.559L479.348 656.529Z" fill="#AD7121"/>
<path d="M739.498 543.018C739.498 543.018 844.357 477.594 961.687 543.018C1079.02 608.441 1101.49 614.659 1212.59 629.97C1323.68 645.296 1213.84 722.731 1116.47 723.552C1019.11 724.373 681.442 755.846 567.223 710.294C453.004 664.743 441.149 659.038 555.985 624.412C670.821 589.786 649.605 603.044 739.484 543.003L739.498 543.018Z" stroke="black" stroke-width="5.08" stroke-miterlimit="10"/>
<path d="M1259.24 656.532C1208.51 669.012 1139.58 668.895 991.661 649.023C843.74 629.151 823.141 641.573 684.582 665.17C546.022 688.767 476.934 657.25 476.934 657.25" stroke="black" stroke-width="5.08" stroke-miterlimit="10"/>
<path d="M1297.55 574.081C1348.63 574.081 1390.05 529.767 1390.05 475.103C1390.05 420.438 1348.63 376.124 1297.55 376.124C1246.46 376.124 1205.05 420.438 1205.05 475.103C1205.05 529.767 1246.46 574.081 1297.55 574.081Z" fill="white" stroke="black" stroke-width="4.28" stroke-miterlimit="10"/>
<path d="M1297.55 532.534C1316.59 532.534 1332.02 507.445 1332.02 476.497C1332.02 445.548 1316.59 420.459 1297.55 420.459C1278.52 420.459 1263.08 445.548 1263.08 476.497C1263.08 507.445 1278.52 532.534 1297.55 532.534Z" fill="black"/>
<path d="M1309.47 473.548C1316.06 473.548 1321.39 467.835 1321.39 460.788C1321.39 453.742 1316.06 448.029 1309.47 448.029C1302.89 448.029 1297.55 453.742 1297.55 460.788C1297.55 467.835 1302.89 473.548 1309.47 473.548Z" fill="white"/>
<path d="M450.127 570.985C501.212 570.985 542.624 526.67 542.624 472.006C542.624 417.342 501.212 373.027 450.127 373.027C399.043 373.027 357.631 417.342 357.631 472.006C357.631 526.67 399.043 570.985 450.127 570.985Z" fill="white" stroke="black" stroke-width="4.28" stroke-miterlimit="10"/>
<path d="M450.131 529.434C469.167 529.434 484.599 504.346 484.599 473.397C484.599 442.448 469.167 417.359 450.131 417.359C431.094 417.359 415.662 442.448 415.662 473.397C415.662 504.346 431.094 529.434 450.131 529.434Z" fill="black"/>
<path d="M462.07 470.465C468.655 470.465 473.994 464.752 473.994 457.705C473.994 450.659 468.655 444.946 462.07 444.946C455.485 444.946 450.146 450.659 450.146 457.705C450.146 464.752 455.485 470.465 462.07 470.465Z" fill="white"/>
<path d="M847.039 447.634H846.436C844.18 447.634 842.352 449.59 842.352 452.004V477.493C842.352 479.907 844.18 481.863 846.436 481.863H847.039C849.294 481.863 851.123 479.907 851.123 477.493V452.004C851.123 449.59 849.294 447.634 847.039 447.634Z" fill="black"/>
<path d="M872.047 447.634H871.444C869.188 447.634 867.359 449.59 867.359 452.004V477.493C867.359 479.907 869.188 481.863 871.444 481.863H872.047C874.302 481.863 876.131 479.907 876.131 477.493V452.004C876.131 449.59 874.302 447.634 872.047 447.634Z" fill="black"/>
</svg>
