<svg width="1246" height="519" viewBox="0 0 1246 519" fill="none" xmlns="http://www.w3.org/2000/svg">
<path d="M1060.65 333.69C1130.65 333.69 1187.39 276.947 1187.39 206.95C1187.39 136.953 1130.65 80.21 1060.65 80.21C990.654 80.21 933.91 136.953 933.91 206.95C933.91 276.947 990.654 333.69 1060.65 333.69Z" fill="black"/>
<path d="M1060.65 265.26C1092.85 265.26 1118.96 239.154 1118.96 206.95C1118.96 174.746 1092.85 148.64 1060.65 148.64C1028.45 148.64 1002.34 174.746 1002.34 206.95C1002.34 239.154 1028.45 265.26 1060.65 265.26Z" fill="#F74D66"/>
<path d="M182.17 333.69C252.166 333.69 308.91 276.947 308.91 206.95C308.91 136.953 252.166 80.21 182.17 80.21C112.173 80.21 55.4297 136.953 55.4297 206.95C55.4297 276.947 112.173 333.69 182.17 333.69Z" fill="white" stroke="black" stroke-width="4" stroke-miterlimit="10"/>
<path d="M182.169 265.26C214.373 265.26 240.479 239.154 240.479 206.95C240.479 174.746 214.373 148.64 182.169 148.64C149.966 148.64 123.859 174.746 123.859 206.95C123.859 239.154 149.966 265.26 182.169 265.26Z" fill="#F74D66"/>
<path d="M823.551 129.05L843.751 113.02L867.661 86.58L886.611 58L899.161 33.05L908.871 8.01001L914.381 34.08L919.811 66.52L923.961 97.65L927.321 129.05L929.701 157.29L930.231 165.14L888.801 148.64L854.191 137.45L823.551 129.05Z" fill="#E0E0E0"/>
<path d="M308.92 165.14L311.33 134.39L316.15 89.84L321.51 52.61L330.27 8.01001L337.15 26.41L352.12 57.26L371.49 86.58L392.01 109.79L415.6 129.05L395.21 134.69L350.34 148.64L308.92 165.14Z" fill="#E0E0E0"/>
<path d="M908.869 8.01L914.379 34.08L920.999 74.84L925.509 111.38L930.219 165.14L888.789 148.64C888.789 148.64 914.509 115.3 908.859 8" fill="#B5B5B5"/>
<path d="M330.27 8.01001L324.95 33.07L319.7 64.1L315.74 93.11L312.54 129.61L308.92 165.14" fill="#B5B5B5"/>
<path d="M308.92 165.14L350.35 148.64C350.35 148.64 320.52 107.77 330.28 8" fill="#B5B5B5"/>
<path d="M823.551 129.05C823.551 129.05 879.231 96.1 908.881 8.01001C924.971 75.77 930.241 165.15 930.241 165.15L888.811 148.65L843.941 134.7L823.551 129.06V129.05Z" stroke="black" stroke-width="4" stroke-miterlimit="10"/>
<path d="M415.6 129.05C415.6 129.05 359.92 96.1 330.27 8.01001C314.18 75.77 308.91 165.15 308.91 165.15L350.34 148.65L395.21 134.7L415.6 129.06V129.05Z" stroke="black" stroke-width="4" stroke-miterlimit="10"/>
<path d="M622 104.44C278.48 104.44 0 309.72 0 562.94H1244.01C1244.01 309.72 965.53 104.44 622.01 104.44H622Z" fill="white" stroke="black" stroke-width="4" stroke-miterlimit="10"/>
<path d="M912.18 157.29C912.18 157.29 879.47 184.19 920.15 201.14C960.83 218.09 1017.3 229.93 1024.07 259.02C1030.84 288.11 1081.79 381.55 1160.79 333.7C1150.78 321.39 1131.65 300.25 1131.65 300.25L1090.59 261.42L1055.38 234.05L1003.18 201.42L962.71 179.28L912.19 157.29H912.18Z" fill="black"/>
<path d="M44.74 391.88C44.74 391.88 156.68 403.3 160.07 467.67C163.46 532.04 192.82 537.69 208.63 544.47C224.44 551.25 216.54 562.93 216.54 562.93H0L1.68 528.99L7.64 490.88L18.83 450.52L37.25 404.7L44.74 391.87V391.88Z" fill="black"/>
<path d="M76.6295 136.75C76.6295 136.75 100.499 152 89.7695 166.68C79.0395 181.36 64.6395 184.47 66.6195 203.1C68.5995 221.73 56.6195 224.29 56.6195 224.29L55.4395 206.93L56.7695 188.5L59.9795 173.17L65.4495 157.46L76.6295 136.74V136.75Z" fill="black"/>
<path d="M540.92 372.81C540.92 372.81 617.43 328.2 703.04 372.81C788.65 417.42 805.05 421.66 886.11 432.1C967.17 442.55 887.02 495.35 815.98 495.91C744.94 496.47 498.56 517.93 415.22 486.87C331.88 455.81 323.23 451.92 407.02 428.31C490.81 404.7 475.33 413.74 540.91 372.8L540.92 372.81Z" fill="#EB9D28" stroke="black" stroke-width="5.08" stroke-miterlimit="10"/>
<path d="M920.15 450.21C883.13 458.72 832.84 458.64 724.91 445.09C616.98 431.54 601.95 440.01 500.85 456.1C399.75 472.19 349.34 450.7 349.34 450.7" stroke="black" stroke-width="5.08" stroke-miterlimit="10"/>
<path d="M348.301 450.21L370.291 455.12C370.291 455.12 409.251 461.33 409.681 461.33C410.111 461.33 451.331 462.09 451.331 462.09L485.781 458.65L533.361 449.61L574.301 442.69L615.381 438.74L648.421 438.34L681.881 440.58L710.401 443.83L753.181 448.49L787.341 451.88L826.021 454.99L859.621 456.68L888.701 456.4C888.701 456.4 913.411 451.6 913.831 451.46C914.251 451.32 920.161 450.48 920.161 450.48L918.201 458.94C918.201 458.94 840.361 474.09 795.561 466.19C750.761 458.29 691.281 454.9 660.411 457.15C629.541 459.4 551.611 464.3 531.661 466.19C511.711 468.08 379.571 482.38 358.861 464.31C353.531 460.78 350.111 457.64 350.111 457.64L348.311 450.23L348.301 450.21Z" fill="#AD7121"/>
<path d="M538.109 372.81C538.109 372.81 614.619 328.2 700.229 372.81C785.839 417.42 802.239 421.66 883.299 432.1C964.359 442.55 884.209 495.35 813.169 495.91C742.129 496.47 495.749 517.93 412.409 486.87C329.069 455.81 320.419 451.92 404.209 428.31C487.999 404.7 472.519 413.74 538.099 372.8L538.109 372.81Z" stroke="black" stroke-width="5.08" stroke-miterlimit="10"/>
<path d="M917.339 450.21C880.319 458.72 830.029 458.64 722.099 445.09C614.169 431.54 599.139 440.01 498.039 456.1C396.939 472.19 346.529 450.7 346.529 450.7" stroke="black" stroke-width="5.08" stroke-miterlimit="10"/>
<path d="M945.301 393.99C982.574 393.99 1012.79 363.774 1012.79 326.5C1012.79 289.226 982.574 259.01 945.301 259.01C908.027 259.01 877.811 289.226 877.811 326.5C877.811 363.774 908.027 393.99 945.301 393.99Z" fill="white" stroke="black" stroke-width="4.28" stroke-miterlimit="10"/>
<path d="M945.3 365.66C959.19 365.66 970.45 348.553 970.45 327.45C970.45 306.347 959.19 289.24 945.3 289.24C931.41 289.24 920.15 306.347 920.15 327.45C920.15 348.553 931.41 365.66 945.3 365.66Z" fill="black"/>
<path d="M954.001 325.44C958.806 325.44 962.701 321.545 962.701 316.74C962.701 311.935 958.806 308.04 954.001 308.04C949.196 308.04 945.301 311.935 945.301 316.74C945.301 321.545 949.196 325.44 954.001 325.44Z" fill="white"/>
<path d="M326.97 391.88C364.244 391.88 394.46 361.664 394.46 324.39C394.46 287.116 364.244 256.9 326.97 256.9C289.697 256.9 259.48 287.116 259.48 324.39C259.48 361.664 289.697 391.88 326.97 391.88Z" fill="white" stroke="black" stroke-width="4.28" stroke-miterlimit="10"/>
<path d="M326.97 363.55C340.86 363.55 352.12 346.443 352.12 325.34C352.12 304.237 340.86 287.13 326.97 287.13C313.08 287.13 301.82 304.237 301.82 325.34C301.82 346.443 313.08 363.55 326.97 363.55Z" fill="black"/>
<path d="M335.68 323.34C340.485 323.34 344.38 319.445 344.38 314.64C344.38 309.835 340.485 305.94 335.68 305.94C330.876 305.94 326.98 309.835 326.98 314.64C326.98 319.445 330.876 323.34 335.68 323.34Z" fill="white"/>
<path d="M616.58 307.77H616.14C614.494 307.77 613.16 309.104 613.16 310.75V328.13C613.16 329.776 614.494 331.11 616.14 331.11H616.58C618.226 331.11 619.56 329.776 619.56 328.13V310.75C619.56 309.104 618.226 307.77 616.58 307.77Z" fill="black"/>
<path d="M634.83 307.77H634.39C632.744 307.77 631.41 309.104 631.41 310.75V328.13C631.41 329.776 632.744 331.11 634.39 331.11H634.83C636.476 331.11 637.81 329.776 637.81 328.13V310.75C637.81 309.104 636.476 307.77 634.83 307.77Z" fill="black"/>
</svg>
