<svg width="496" height="245" viewBox="0 0 496 245" fill="none" xmlns="http://www.w3.org/2000/svg">
<path d="M421.483 145.836C449.166 145.836 471.608 121.821 471.608 92.1978C471.608 62.5745 449.166 38.5601 421.483 38.5601C393.799 38.5601 371.357 62.5745 371.357 92.1978C371.357 121.821 393.799 145.836 421.483 145.836Z" fill="black"/>
<path d="M421.483 116.875C434.22 116.875 444.544 105.827 444.544 92.1979C444.544 78.569 434.22 67.5205 421.483 67.5205C408.747 67.5205 398.422 78.569 398.422 92.1979C398.422 105.827 408.747 116.875 421.483 116.875Z" fill="#F74D66"/>
<path d="M74.0489 145.836C101.732 145.836 124.174 121.821 124.174 92.1981C124.174 62.5747 101.732 38.5603 74.0489 38.5603C46.3656 38.5603 23.9238 62.5747 23.9238 92.1981C23.9238 121.821 46.3656 145.836 74.0489 145.836Z" fill="white" stroke="black" stroke-width="4" stroke-miterlimit="10"/>
<path d="M74.0496 116.875C86.786 116.875 97.1109 105.827 97.1109 92.1979C97.1109 78.569 86.786 67.5205 74.0496 67.5205C61.3132 67.5205 50.9883 78.569 50.9883 92.1979C50.9883 105.827 61.3132 116.875 74.0496 116.875Z" fill="#F74D66"/>
<path d="M327.713 59.2298L335.702 52.4458L345.158 41.2561L352.653 29.1607L357.616 18.6016L361.457 8.00439L363.636 19.0375L365.783 32.7665L367.425 45.941L368.753 59.2298L369.695 71.1813L369.904 74.5035L353.519 67.5205L339.831 62.7848L327.713 59.2298Z" fill="#E0E0E0"/>
<path d="M124.178 74.5035L125.131 61.4898L127.037 42.6357L129.157 26.8796L132.622 8.00439L135.343 15.7915L141.263 28.8475L148.924 41.2561L157.039 51.0788L166.369 59.2298L158.305 61.6167L140.559 67.5205L124.178 74.5035Z" fill="#E0E0E0"/>
<path d="M361.453 8.00423L363.632 19.0373L366.251 36.2874L368.034 51.7515L369.897 74.5033L353.512 67.5204C353.512 67.5204 363.684 53.4105 361.449 8" fill="#B5B5B5"/>
<path d="M132.622 8.00415L130.518 18.6098L128.441 31.742L126.875 44.0194L125.609 59.4666L124.178 74.5033" fill="#B5B5B5"/>
<path d="M124.178 74.5033L140.563 67.5204C140.563 67.5204 128.765 50.2237 132.626 8" fill="#B5B5B5"/>
<path d="M327.707 59.2298C327.707 59.2298 349.728 45.285 361.455 8.00439C367.818 36.6812 369.902 74.5077 369.902 74.5077L353.517 67.5248L335.771 61.621L327.707 59.2341V59.2298Z" stroke="black" stroke-width="4" stroke-miterlimit="10"/>
<path d="M166.365 59.2298C166.365 59.2298 144.344 45.285 132.618 8.00439C126.254 36.6812 124.17 74.5077 124.17 74.5077L140.555 67.5248L158.301 61.621L166.365 59.2341V59.2298Z" stroke="black" stroke-width="4" stroke-miterlimit="10"/>
<path d="M247.998 48.8145C112.138 48.8145 2 135.691 2 242.857L494 242.857C494 135.691 383.862 48.8145 248.002 48.8145H247.998Z" fill="white" stroke="black" stroke-width="4" stroke-miterlimit="10"/>
<path d="M362.762 71.1812C362.762 71.1812 349.825 82.5655 365.914 89.7389C382.003 96.9124 404.336 101.923 407.014 114.234C409.691 126.546 429.842 166.09 461.086 145.84C457.127 140.63 449.561 131.683 449.561 131.683L433.322 115.25L419.397 103.667L398.752 89.8574L382.746 80.4876L362.766 71.1812H362.762Z" fill="black"/>
<path d="M19.6945 170.462C19.6945 170.462 63.9662 175.296 65.3069 202.538C66.6476 229.78 78.2594 232.171 84.5122 235.04C90.7649 237.91 87.6405 242.853 87.6405 242.853H2L2.66443 228.489L5.02158 212.36L9.44717 195.28L16.7322 175.888L19.6945 170.458V170.462Z" fill="black"/>
<path d="M32.3083 62.4884C32.3083 62.4884 41.7487 68.9423 37.5051 75.1551C33.2614 81.3678 27.5663 82.684 28.3494 90.5684C29.1325 98.4528 24.3944 99.5362 24.3944 99.5362L23.9277 92.1893L24.4537 84.3895L25.7233 77.9017L27.8866 71.2531L32.3083 62.4841V62.4884Z" fill="black"/>
<path d="M215.929 162.392C215.929 162.392 246.189 143.512 280.047 162.392C313.905 181.271 320.392 183.066 352.45 187.484C384.509 191.907 352.81 214.252 324.714 214.489C296.618 214.726 199.176 223.808 166.216 210.663C133.255 197.518 129.834 195.872 162.973 185.88C196.111 175.888 189.989 179.714 215.925 162.388L215.929 162.392Z" fill="#EB9D28" stroke="black" stroke-width="5.08" stroke-miterlimit="10"/>
<path d="M365.913 195.148C351.272 198.75 331.382 198.716 288.696 192.981C246.01 187.247 240.066 190.832 200.082 197.641C160.097 204.45 140.16 195.356 140.16 195.356" stroke="black" stroke-width="5.08" stroke-miterlimit="10"/>
<path d="M139.75 195.148L148.447 197.226C148.447 197.226 163.855 199.854 164.025 199.854C164.196 199.854 180.498 200.176 180.498 200.176L194.123 198.72L212.94 194.894L229.132 191.965L245.379 190.294L258.446 190.125L271.679 191.072L282.959 192.448L299.878 194.42L313.388 195.855L328.686 197.171L341.975 197.886L353.476 197.768C353.476 197.768 363.248 195.736 363.414 195.677C363.581 195.618 365.918 195.262 365.918 195.262L365.143 198.843C365.143 198.843 334.357 205.254 316.639 201.911C298.921 198.568 275.397 197.133 263.188 198.085C250.979 199.037 220.158 201.111 212.268 201.911C204.378 202.711 152.117 208.763 143.926 201.115C141.818 199.621 140.466 198.292 140.466 198.292L139.754 195.156L139.75 195.148Z" fill="#AD7121"/>
<path d="M214.822 162.392C214.822 162.392 245.081 143.512 278.94 162.392C312.798 181.271 319.284 183.066 351.343 187.484C383.402 191.907 351.703 214.252 323.607 214.489C295.511 214.726 198.069 223.808 165.108 210.663C132.148 197.518 128.727 195.872 161.865 185.88C195.004 175.888 188.881 179.714 214.818 162.388L214.822 162.392Z" stroke="black" stroke-width="5.08" stroke-miterlimit="10"/>
<path d="M364.805 195.148C350.164 198.75 330.275 198.716 287.589 192.981C244.903 187.247 238.959 190.832 198.974 197.641C158.99 204.45 139.053 195.356 139.053 195.356" stroke="black" stroke-width="5.08" stroke-miterlimit="10"/>
<path d="M375.86 171.355C390.602 171.355 402.552 158.567 402.552 142.793C402.552 127.018 390.602 114.23 375.86 114.23C361.118 114.23 349.168 127.018 349.168 142.793C349.168 158.567 361.118 171.355 375.86 171.355Z" fill="white" stroke="black" stroke-width="4.28" stroke-miterlimit="10"/>
<path d="M375.861 159.366C381.354 159.366 385.807 152.126 385.807 143.195C385.807 134.264 381.354 127.024 375.861 127.024C370.367 127.024 365.914 134.264 365.914 143.195C365.914 152.126 370.367 159.366 375.861 159.366Z" fill="black"/>
<path d="M379.3 142.344C381.2 142.344 382.741 140.696 382.741 138.662C382.741 136.629 381.2 134.98 379.3 134.98C377.4 134.98 375.859 136.629 375.859 138.662C375.859 140.696 377.4 142.344 379.3 142.344Z" fill="white"/>
<path d="M131.317 170.462C146.059 170.462 158.009 157.674 158.009 141.899C158.009 126.125 146.059 113.337 131.317 113.337C116.575 113.337 104.625 126.125 104.625 141.899C104.625 157.674 116.575 170.462 131.317 170.462Z" fill="white" stroke="black" stroke-width="4.28" stroke-miterlimit="10"/>
<path d="M131.318 158.472C136.811 158.472 141.264 151.232 141.264 142.301C141.264 133.37 136.811 126.13 131.318 126.13C125.824 126.13 121.371 133.37 121.371 142.301C121.371 151.232 125.824 158.472 131.318 158.472Z" fill="black"/>
<path d="M134.763 141.455C136.663 141.455 138.204 139.806 138.204 137.773C138.204 135.74 136.663 134.091 134.763 134.091C132.863 134.091 131.322 135.74 131.322 137.773C131.322 139.806 132.863 141.455 134.763 141.455Z" fill="white"/>
<path d="M245.855 134.866H245.681C245.03 134.866 244.502 135.431 244.502 136.127V143.483C244.502 144.179 245.03 144.744 245.681 144.744H245.855C246.505 144.744 247.033 144.179 247.033 143.483V136.127C247.033 135.431 246.505 134.866 245.855 134.866Z" fill="black"/>
<path d="M253.071 134.866H252.897C252.246 134.866 251.719 135.431 251.719 136.128V143.483C251.719 144.18 252.246 144.744 252.897 144.744H253.071C253.722 144.744 254.25 144.18 254.25 143.483V136.128C254.25 135.431 253.722 134.866 253.071 134.866Z" fill="black"/>
</svg>
