<svg width="635" height="231" viewBox="0 0 635 231" fill="none" xmlns="http://www.w3.org/2000/svg">
<path d="M317.044 230.862C467.484 230.862 589.441 141.994 589.441 32.3687C589.441 26.9655 589.145 21.6127 588.563 16.3186L588.278 16.181L588.195 16.1397L586.625 15.3443L585.109 14.5634L585.085 14.551L583.608 13.8003L582.174 13.1034L580.796 12.4842L579.478 11.9575L578.219 11.5324L577.018 11.213L575.866 10.9986L574.748 10.886L573.645 10.8724L572.533 10.9572L571.392 11.143L570.205 11.433L568.962 11.8289L567.661 12.3282L566.3 12.9229L564.881 13.6001L563.426 14.3322L561.886 15.1249L561.872 15.1323L560.332 15.9186L560.263 15.9528L558.723 16.7093L558.599 16.768L557.059 17.4722C556.999 17.4996 556.938 17.5258 556.877 17.5509L555.337 18.1817C555.258 18.2143 555.177 18.2449 555.096 18.2733L553.556 18.8121C553.456 18.8468 553.356 18.8784 553.255 18.9067L551.715 19.3373C551.597 19.3702 551.478 19.3988 551.358 19.4229L549.818 19.7326C549.685 19.7593 549.55 19.7806 549.416 19.7963L547.875 19.9758C547.732 19.9925 547.588 20.0029 547.444 20.007L545.904 20.0509C545.758 20.0551 545.611 20.0528 545.465 20.044L543.925 19.9511C543.784 19.9425 543.642 19.9279 543.502 19.9072L541.962 19.6803C541.899 19.671 541.837 19.6606 541.774 19.649C541.708 19.6365 541.641 19.6225 541.574 19.6073L540.034 19.253C539.921 19.2269 539.808 19.1968 539.696 19.1627L538.156 18.6916C538.062 18.6628 537.969 18.6312 537.877 18.5968L536.337 18.023C536.263 17.9955 536.189 17.9662 536.117 17.9351L534.577 17.2757L534.519 17.2501L534.416 17.2035L532.875 16.4781L532.772 16.4277L531.232 15.6579L531.183 15.6331L529.647 14.8442L529.643 14.8418L528.165 14.0845L528.107 14.055L526.682 13.3488L525.284 12.6995L523.944 12.1377L522.663 11.6749L521.442 11.3169L520.273 11.0646L519.144 10.9154L518.038 10.866L516.932 10.9149L515.804 11.0636L514.635 11.3154L513.414 11.6728L512.134 12.135L510.794 12.6963L509.396 13.3453L507.971 14.0511L507.912 14.0807L506.436 14.8377L506.431 14.8403L504.896 15.6291L504.847 15.6537L503.307 16.4237L503.204 16.4739L501.664 17.1996C501.61 17.2246 501.557 17.2486 501.503 17.2717L499.963 17.9315L499.856 17.9763L499.744 18.0194L498.204 18.5937L498.082 18.6369C498.03 18.655 497.977 18.6722 497.924 18.6885L496.384 19.1601C496.272 19.1942 496.16 19.2243 496.047 19.2504L494.506 19.6053C494.45 19.6183 494.395 19.6302 494.338 19.6411C494.265 19.6552 494.192 19.6676 494.119 19.6785L492.579 19.9061L492.437 19.9249C492.344 19.936 492.25 19.9444 492.156 19.9501L490.616 20.0437C490.47 20.0526 490.323 20.055 490.177 20.0509L488.637 20.0076C488.493 20.0036 488.349 19.9932 488.206 19.9766L486.665 19.7978C486.53 19.7821 486.396 19.7609 486.263 19.7342L484.723 19.4252L484.596 19.398C484.519 19.3804 484.442 19.361 484.366 19.3397L482.826 18.9096C482.724 18.8813 482.624 18.8498 482.524 18.815L480.984 18.2768C480.902 18.2484 480.822 18.2178 480.742 18.1852L479.202 17.5547C479.141 17.5297 479.08 17.5035 479.02 17.476L477.48 16.7721L477.356 16.7133L475.816 15.957L475.747 15.9227L474.192 15.1289L472.691 14.356L472.652 14.3362L471.197 13.6037L469.778 12.9261L468.417 12.3309L467.115 11.8312L465.872 11.4348L464.685 11.1442L463.543 10.9579L462.432 10.8725L461.329 10.8857L460.211 10.9978L459.059 11.2116L457.858 11.5305L456.599 11.9551L455.281 12.4815L453.904 13.1001L452.471 13.7967L450.993 14.547L450.969 14.5595L449.453 15.3403L449.424 15.3551L447.884 16.1356L447.801 16.1768L446.26 16.9212C446.215 16.9435 446.168 16.9651 446.122 16.9859L444.581 17.6721C444.516 17.7012 444.45 17.7288 444.383 17.7551L442.843 18.3626C442.758 18.3961 442.672 18.4273 442.585 18.4561L441.045 18.9668C440.941 19.0015 440.835 19.0326 440.728 19.0602L439.188 19.459L439.072 19.4877C438.987 19.5073 438.903 19.5247 438.818 19.5399L437.278 19.8148C437.141 19.8391 437.004 19.8578 436.866 19.8706L435.326 20.0134C435.18 20.0269 435.035 20.0339 434.89 20.0345L433.35 20.0411C433.204 20.0417 433.058 20.0359 432.913 20.0237L431.373 19.8937C431.234 19.882 431.095 19.8644 430.958 19.841L429.417 19.5784C429.291 19.5569 429.166 19.5306 429.043 19.4995L427.502 19.1121C427.394 19.0849 427.286 19.0539 427.18 19.0193L425.64 18.5187C425.551 18.4899 425.463 18.4586 425.376 18.4247L423.836 17.8258C423.767 17.7992 423.7 17.7711 423.633 17.7414L422.092 17.0619C422.044 17.0405 421.995 17.0182 421.948 16.9952L420.408 16.2555L420.319 16.2118L418.779 15.4338L418.763 15.4259L418.744 15.4164L417.224 14.6332L417.204 14.6233L415.72 13.8673L414.28 13.1636L412.898 12.5369L411.574 12.0013L410.31 11.5667L409.104 11.2377L407.947 11.0138L406.827 10.8921L405.723 10.8695L404.613 10.9454L403.475 11.1218L402.293 11.4023L401.056 11.7886L399.76 12.2788L398.404 12.8653L396.99 13.5357L395.544 14.2613L395.499 14.2837L394.004 15.0534L393.994 15.0583L392.454 15.8462L392.39 15.8781L390.85 16.6382L390.731 16.6948L389.191 17.4047C389.133 17.4315 389.074 17.4572 389.015 17.4818L387.475 18.1201C387.397 18.1524 387.319 18.1826 387.239 18.2109L385.699 18.7587C385.601 18.7934 385.503 18.825 385.403 18.8535L383.863 19.2946C383.747 19.3278 383.629 19.3568 383.511 19.3815L381.971 19.7026C381.875 19.7226 381.779 19.7396 381.682 19.7539L381.572 19.7688L380.032 19.9604C379.89 19.9782 379.746 19.9897 379.602 19.9949L378.062 20.0513C377.916 20.0567 377.77 20.0555 377.623 20.0479L376.083 19.9674C375.941 19.9599 375.799 19.9464 375.658 19.9266L374.118 19.7116C373.986 19.6933 373.855 19.6697 373.726 19.6408L372.186 19.2978C372.071 19.2721 371.957 19.2423 371.844 19.2085L370.303 18.7475C370.207 18.7188 370.112 18.6871 370.018 18.6526L368.478 18.0875C368.402 18.0597 368.327 18.03 368.252 17.9985L366.712 17.3461C366.656 17.3225 366.601 17.2978 366.546 17.2722L365.006 16.5519L364.898 16.4994L363.358 15.7327L363.304 15.7055L360.277 14.1518L360.223 14.1247L358.79 13.4117L357.386 12.755L356.042 12.1847L354.756 11.7127L353.529 11.3451L352.356 11.0832L351.224 10.9248L350.117 10.8664L349.012 10.9063L347.886 11.0458L346.722 11.2881L345.506 11.6359L344.232 12.0888L342.897 12.6414L341.504 13.2831L340.055 13.9981L338.557 14.7646L338.546 14.7697L337.016 15.5567L336.973 15.5789L335.433 16.3519L335.334 16.3998L333.794 17.1305C333.743 17.1548 333.691 17.1783 333.639 17.2008L332.098 17.8675C332.028 17.8981 331.956 17.927 331.884 17.9542L330.344 18.537C330.254 18.5712 330.162 18.6028 330.071 18.6317L328.53 19.1132C328.421 19.1475 328.309 19.1779 328.198 19.2045L326.657 19.5705C326.603 19.5836 326.548 19.5957 326.492 19.6068C326.42 19.6214 326.347 19.6344 326.274 19.6457L324.734 19.8853C324.595 19.907 324.455 19.9227 324.314 19.9323L322.774 20.0383C322.628 20.0483 322.481 20.0519 322.336 20.049L320.795 20.0182C320.651 20.0153 320.506 20.006 320.362 19.9905L318.822 19.8239C318.686 19.8091 318.55 19.7888 318.416 19.7628L316.876 19.4653C316.755 19.4419 316.634 19.4138 316.515 19.3813L314.975 18.9618C314.871 18.9337 314.769 18.9022 314.668 18.8675L313.127 18.3384C313.044 18.3099 312.962 18.2791 312.881 18.2461L311.34 17.6233L311.248 17.5846L311.153 17.5431L309.613 16.8451L309.483 16.7842L307.943 16.0318L307.87 15.9951L306.33 15.2106L306.31 15.2006L304.804 14.4248L304.77 14.4075L303.307 13.6689L301.883 12.9846L300.517 12.3813L299.209 11.8725L297.961 11.4665L296.769 11.1663L295.624 10.9706L294.511 10.8762L293.408 10.8804L292.292 10.9834L291.144 11.1879L289.948 11.4972L288.695 11.9122L287.382 12.4295L286.01 13.0404L284.582 13.7307L283.083 14.49L281.572 15.2683L281.548 15.2807L280.007 16.0633L279.929 16.1022L278.389 16.8508L278.255 16.9136L276.714 17.6059C276.651 17.6345 276.587 17.6617 276.522 17.6875L274.982 18.303C274.899 18.3362 274.814 18.3672 274.73 18.3959L273.189 18.9161C273.087 18.9508 272.983 18.9822 272.878 19.0101L271.338 19.4195L271.216 19.4501C271.135 19.4695 271.054 19.4868 270.972 19.5021L269.432 19.7886C269.296 19.8138 269.16 19.8334 269.023 19.8472L267.482 20.0023C267.386 20.012 267.289 20.0189 267.192 20.0229L267.049 20.0268L265.508 20.0458C265.362 20.0476 265.216 20.043 265.071 20.0319L263.531 19.9143C263.391 19.9036 263.251 19.8869 263.112 19.8644L261.572 19.6136C261.445 19.5929 261.318 19.5672 261.193 19.5366L259.653 19.1601C259.542 19.1332 259.433 19.1025 259.325 19.0681L257.785 18.5772C257.695 18.5484 257.605 18.5169 257.517 18.4829L255.976 17.8922C255.906 17.8652 255.836 17.8366 255.767 17.8065L254.227 17.1335C254.177 17.1115 254.126 17.0887 254.077 17.065L252.537 16.3298L252.49 16.3072L252.443 16.2839L250.903 15.5085L250.864 15.4886L249.338 14.7033L249.323 14.6959L247.832 13.9344L246.388 13.2249L245 12.5903L243.67 12.0459L242.401 11.6019L241.19 11.2632L240.029 11.0299L238.907 10.899L237.802 10.8675L236.694 10.9344L235.559 11.1016L234.382 11.3724L233.15 11.7491L231.859 12.23L230.509 12.8081L229.1 13.4716L227.66 14.1909L227.611 14.2156L226.12 14.9822L226.115 14.9846L224.575 15.7738L224.517 15.8033L222.977 16.5669L222.863 16.6214L221.323 17.3367C221.266 17.3629 221.21 17.3881 221.152 17.4122L219.612 18.0578C219.536 18.0897 219.459 18.1197 219.382 18.1477L217.841 18.7045C217.746 18.7391 217.649 18.7708 217.551 18.7994L216.011 19.2508C215.896 19.2843 215.78 19.3138 215.664 19.339L214.124 19.6714C213.993 19.6996 213.861 19.7225 213.728 19.74L212.188 19.9437C212.046 19.9624 211.904 19.9751 211.761 19.9814L210.221 20.0502C210.074 20.0568 209.928 20.0568 209.781 20.0503L208.241 19.9822C208.099 19.9759 207.956 19.9634 207.814 19.9447L206.274 19.7417C206.141 19.7242 206.009 19.7014 205.879 19.6732L204.338 19.3414C204.221 19.3162 204.106 19.2868 203.991 19.2533L202.451 18.8025L202.315 18.7605C202.263 18.7437 202.212 18.7261 202.16 18.7076L200.62 18.1513C200.542 18.1233 200.465 18.0933 200.389 18.0614L198.849 17.4161C198.791 17.392 198.734 17.3668 198.678 17.3405L197.137 16.6256L197.024 16.5709L195.483 15.8075L195.425 15.7779L193.885 14.9887L193.88 14.9862L192.388 14.2194L192.34 14.1948L190.899 13.4751L189.49 12.8113L188.14 12.2327L186.848 11.7513L185.617 11.3741L184.439 11.1027L183.304 10.935L182.196 10.8676L181.091 10.8986L179.969 11.029L178.808 11.2617L177.597 11.5999L176.328 12.0434L174.999 12.5873L173.612 13.2214L172.168 13.9305L170.661 14.6993L169.136 15.4845L169.097 15.5042L167.557 16.2799L167.511 16.3029L167.464 16.3256L165.924 17.0611C165.874 17.0847 165.824 17.1075 165.774 17.1295L164.233 17.8029C164.165 17.833 164.095 17.8615 164.025 17.8885L162.485 18.4796C162.396 18.5136 162.306 18.5451 162.216 18.574L160.676 19.0654C160.568 19.0998 160.459 19.1305 160.349 19.1575L158.808 19.5345C158.684 19.5652 158.557 19.5909 158.43 19.6117L156.89 19.8631C156.822 19.8742 156.753 19.8839 156.684 19.8922C156.613 19.9007 156.543 19.9077 156.471 19.9131L154.931 20.0315C154.786 20.0426 154.64 20.0473 154.494 20.0456L152.954 20.0273C152.866 20.0262 152.778 20.0228 152.691 20.0171C152.634 20.0134 152.576 20.0087 152.519 20.003L150.979 19.8485C150.842 19.8348 150.706 19.8153 150.57 19.7902L149.03 19.5042C148.907 19.4814 148.785 19.4539 148.664 19.4218L147.124 19.0129C147.018 18.985 146.915 18.9537 146.811 18.919L145.271 18.3993C145.186 18.3706 145.102 18.3396 145.019 18.3064L143.479 17.6913C143.414 17.6655 143.349 17.6383 143.286 17.6097L141.746 16.9177L141.611 16.8548L140.071 16.1064L140.019 16.0805L139.993 16.0674L138.453 15.2849L138.428 15.2724L136.917 14.4939L136.888 14.4791L135.418 13.7344L133.989 13.0437L132.617 12.4324L131.304 11.9146L130.051 11.499L128.854 11.1892L127.705 10.9842L126.59 10.8807L125.487 10.876L124.373 10.9699L123.228 11.165L122.037 11.4647L120.789 11.8701L119.482 12.3784L118.116 12.9812L116.692 13.6652L115.23 14.4035L115.196 14.4209L113.69 15.1966L113.67 15.2064L112.13 15.991L112.057 16.0276L110.517 16.7802L110.388 16.8409L108.847 17.5393C108.786 17.5673 108.723 17.594 108.66 17.6195L107.12 18.2427C107.039 18.2756 106.957 18.3064 106.874 18.335L105.333 18.8645C105.233 18.8993 105.13 18.9307 105.028 18.9589L103.487 19.379C103.368 19.4115 103.247 19.4396 103.126 19.4631L101.585 19.7612C101.451 19.7872 101.316 19.8076 101.18 19.8224L99.6398 19.9897L99.5171 20.0015C99.4136 20.0101 99.3102 20.0155 99.2067 20.0176L97.6666 20.0491C97.5207 20.0521 97.3742 20.0486 97.2284 20.0386L95.6882 19.9334C95.5475 19.9238 95.4074 19.9081 95.268 19.8865L93.7278 19.6476C93.5986 19.6276 93.4708 19.6026 93.3442 19.5725L91.804 19.2071C91.6922 19.1806 91.581 19.1501 91.4712 19.1159L89.931 18.6349C89.8391 18.606 89.7472 18.5745 89.6566 18.5402L88.1165 17.9579C88.0445 17.9306 87.9732 17.9017 87.9025 17.8711L86.3623 17.2048C86.3096 17.1822 86.2582 17.1588 86.2068 17.1344L84.6666 16.404L84.5677 16.3559L83.0275 15.5832L82.9838 15.5608L81.4533 14.7736L81.4436 14.7687L79.9446 14.0019L78.495 13.2865L77.102 12.6445L75.7674 12.0914L74.4926 11.638L73.2763 11.2896L72.1113 11.0468L70.9856 10.9068L69.8804 10.8663L68.7733 10.9242L67.6425 11.0821L66.4692 11.3435L65.2426 11.7105L63.9575 12.1821L62.6126 12.7519L61.2093 13.4081L59.7501 14.1345L56.6967 15.7014L56.6428 15.7285L55.1026 16.4954L54.9946 16.5477L53.4545 17.2683C53.3992 17.294 53.3439 17.3186 53.2887 17.3421L51.7485 17.995C51.674 18.0264 51.5994 18.0561 51.5236 18.0839L49.9834 18.6495C49.889 18.684 49.7939 18.7156 49.6982 18.7444L48.158 19.2059C48.0449 19.2398 47.9312 19.2696 47.8161 19.2953L46.276 19.639C46.1462 19.6679 46.0157 19.6915 45.8847 19.7099L45.183 19.8081C44.827 23.9617 44.6465 28.1498 44.6465 32.3687C44.6465 141.994 166.603 230.862 317.044 230.862Z" fill="#436BFC"/>
<path d="M10 10.5183L11.5391 10.21L13.0781 10.0373L14.6172 10.0054L16.1562 10.1152L17.6953 10.3634L19.2344 10.7427L20.7734 11.2417L22.3125 11.8457L23.8515 12.5365L25.3906 13.2936L26.9296 14.0946L28.4687 14.9154L30.0078 15.7318L31.5468 16.5193L33.0859 17.2545L34.6249 17.9156L36.164 18.4828L37.7031 18.9392L39.2421 19.2713L40.7812 19.4691L42.3202 19.5268L43.8593 19.4426L45.3984 19.2191L46.9374 18.8629L48.4765 18.3847L50.0155 17.7986L51.5546 17.1221L53.0936 16.3754L54.6327 15.5806L56.1718 14.7616L57.7108 13.9426L59.2499 13.1481L60.7889 12.4017L62.328 11.7256L63.8671 11.14L65.4061 10.6623L66.9452 10.3068L68.4842 10.084L70.0233 10.0006L71.5624 10.059L73.1014 10.2575L74.6405 10.5903L76.1795 11.0473L77.7186 11.615L79.2576 12.2765L80.7967 13.012L82.3358 13.7997L83.8748 14.6162L85.4139 15.437L86.9529 16.2378L88.492 16.9946L90.0311 17.6851L91.5701 18.2885L93.1092 18.787L94.6482 19.1656L96.1873 19.4131L97.7264 19.5222L99.2654 19.4896L100.804 19.3162L102.344 19.0072L103.883 18.5719L105.422 18.0231L106.961 17.3773L108.5 16.6537L110.039 15.8737L111.578 15.0607L113.117 14.2389L114.656 13.4326L116.195 12.6661L117.734 11.962L119.273 11.3413L120.812 10.8226L122.351 10.4212L123.89 10.1491L125.429 10.0145L126.968 10.0213L128.508 10.1694L130.047 10.4543L131.586 10.8675L133.125 11.3967L134.664 12.0263L136.203 12.7373L137.742 13.5087L139.281 14.3175L140.82 15.1396L142.359 15.9504L143.898 16.726L145.437 17.443L146.976 18.0803L148.515 18.6189L150.054 19.0426L151.593 19.3388L153.132 19.4989L154.672 19.5179L156.211 19.3953L157.75 19.1348L159.289 18.7441L160.828 18.2348L162.367 17.6222L163.906 16.9245L165.445 16.1624L166.984 15.3587L168.523 14.5372L170.062 13.7225L171.601 12.9388L173.14 12.2094L174.679 11.5561L176.218 10.9983L177.757 10.5527L179.296 10.2325L180.836 10.0472L182.375 10.0024L183.914 10.0994L185.453 10.3353L186.992 10.7031L188.531 11.1918L190.07 11.7869L191.609 12.4706L193.148 13.2226L194.687 14.0206L196.226 14.8406L197.765 15.6584L199.304 16.4495L200.843 17.1904L202.382 17.8591L203.921 18.4355L205.46 18.9026L207 19.2465L208.539 19.4568L210.078 19.5274L211.617 19.4561L213.156 19.2451L214.695 18.9006L216.234 18.4329L217.773 17.8559L219.312 17.1868L220.851 16.4456L222.39 15.6543L223.929 14.8364L225.468 14.0164L227.007 13.2187L228.546 12.4669L230.085 11.7836L231.624 11.189L233.164 10.7009L234.703 10.3337L236.242 10.0986L237.781 10.0023L239.32 10.0478L240.859 10.2338L242.398 10.5547L243.937 11.0009L245.476 11.5592L247.015 12.213L248.554 12.9427L250.093 13.7266L251.632 14.5414L253.171 15.3628L254.71 16.1664L256.249 16.9283L257.788 17.6256L259.328 18.2377L260.867 18.7464L262.406 19.1364L263.945 19.3963L265.484 19.5181L267.023 19.4984L268.562 19.3377L270.101 19.0407L271.64 18.6164L273.179 18.0773L274.718 17.4396L276.257 16.7221L277.796 15.9463L279.335 15.1354L280.874 14.3133L282.413 13.5047L283.952 12.7335L285.492 12.0228L287.031 11.3938L288.57 10.8651L290.109 10.4525L291.648 10.1683L293.187 10.0209L294.726 10.0149L296.265 10.1502L297.804 10.4229L299.343 10.8249L300.882 11.3442L302.421 11.9654L303.96 12.6699L305.499 13.4367L307.038 14.2431L308.577 15.0649L310.116 15.8778L311.656 16.6575L313.195 17.3808L314.734 18.0262L316.273 18.5744L317.812 19.0091L319.351 19.3174L320.89 19.4901L322.429 19.522L323.968 19.4122L325.507 19.164L327.046 18.7847L328.585 18.2857L330.124 17.6817L331.663 16.9909L333.202 16.2338L334.741 15.4328L336.28 14.612L337.82 13.7956L339.359 13.0081L340.898 12.2729L342.437 11.6118L343.976 11.0446L345.515 10.5882L347.054 10.2562L348.593 10.0583L350.132 10.0006L351.671 10.0848L353.21 10.3083L354.749 10.6645L356.288 11.1427L357.827 11.7288L359.366 12.4053L360.905 13.152L362.444 13.9468L363.984 14.7658L365.523 15.5848L367.062 16.3793L368.601 17.1257L370.14 17.8018L371.679 18.3874L373.218 18.8651L374.757 19.2206L376.296 19.4434L377.835 19.5268L379.374 19.4684L380.913 19.2699L382.452 18.9372L383.991 18.4801L385.53 17.9124L387.069 17.2509L388.608 16.5154L390.148 15.7277L391.687 14.9112L393.226 14.0904L394.765 13.2896L396.304 12.5328L397.843 11.8423L399.382 11.2389L400.921 10.7405L402.46 10.3618L403.999 10.1143L405.538 10.0052L407.077 10.0378L408.616 10.2112L410.155 10.5202L411.694 10.9555L413.233 11.5043L414.772 12.1501L416.312 12.8737L417.851 13.6537L419.39 14.4667L420.929 15.2885L422.468 16.0948L424.007 16.8613L425.546 17.5654L427.085 18.1861L428.624 18.7049L430.163 19.1062L431.702 19.3783L433.241 19.5129L434.78 19.5061L436.319 19.358L437.858 19.0731L439.397 18.6599L440.936 18.1307L442.476 17.5011L444.015 16.7901L445.554 16.0187L447.093 15.2099L448.632 14.3878L450.171 13.577L451.71 12.8014L453.249 12.0844L454.788 11.4471L456.327 10.9085L457.866 10.4848L459.405 10.1886L460.944 10.0285L462.483 10.0095L464.022 10.1321L465.561 10.3926L467.1 10.7833L468.64 11.2926L470.179 11.9052L471.718 12.6029L473.257 13.365L474.796 14.1687L476.335 14.9902L477.874 15.8049L479.413 16.5886L480.952 17.318L482.491 17.9713L484.03 18.5291L485.569 18.9747L487.108 19.2949L488.647 19.4802L490.186 19.525L491.725 19.428L493.264 19.1921L494.804 18.8243L496.343 18.3356L497.882 17.7405L499.421 17.0568L500.96 16.3048L502.499 15.5068L504.038 14.6868L505.577 13.869L507.116 13.0779L508.655 12.337L510.194 11.6683L511.733 11.0919L513.272 10.6248L514.811 10.2809L516.35 10.0706L517.889 10L519.428 10.0713L520.968 10.2823L522.507 10.6268L524.046 11.0946L525.585 11.6715L527.124 12.3406L528.663 13.0818L530.202 13.8731L531.741 14.691L533.28 15.511L534.819 16.3087L536.358 17.0605L537.897 17.7438L539.436 18.3384L540.975 18.8265L542.514 19.1937L544.053 19.4289L545.592 19.5251L547.132 19.4796L548.671 19.2936L550.21 18.9727L551.749 18.5265L553.288 17.9682L554.827 17.3144L556.366 16.5847L557.905 15.8008L559.444 14.986L560.983 14.1646L562.522 13.361L564.061 12.5992L565.6 11.9018L567.139 11.2897L568.678 10.781L570.217 10.391L571.756 10.1311L573.296 10.0093L574.835 10.029L576.374 10.1897L577.913 10.4867L579.452 10.911L580.991 11.4501L582.53 12.0879L584.069 12.8053L585.608 13.5811L587.147 14.392L588.686 15.2141L590.225 16.0227L591.764 16.7939L593.303 17.5046L594.842 18.1336L596.381 18.6623L597.92 19.0749L599.46 19.3591L600.999 19.5065L602.538 19.5126L604.077 19.3772L605.616 19.1045L607.155 18.7025L608.694 18.1832L610.233 17.562L611.772 16.8575L613.311 16.0907L614.85 15.2843L616.389 14.4625L617.928 13.6496L619.467 12.8699L621.006 12.1466L622.545 11.5012L624.084 10.953" stroke="white" stroke-width="20" stroke-miterlimit="10" stroke-linecap="round" stroke-linejoin="round"/>
</svg>
