<svg width="621" height="668" viewBox="0 0 621 668" fill="none" xmlns="http://www.w3.org/2000/svg">
<circle cx="314.5" cy="323.5" r="133" fill="#FFE600" stroke="black"/>
<path d="M158.746 403.981L131.452 358.738L11.3057 408.166L62.0097 502.765L158.746 403.981Z" fill="#FFE600" stroke="black"/>
<path d="M329.396 492.459L277.17 484.427L238.141 608.342L343.259 630.024L329.396 492.459Z" fill="#FFE600" stroke="black"/>
<path d="M470.316 412.646L438.196 454.602L528.156 548.332L597.645 466.531L470.316 412.646Z" fill="#FFE600" stroke="black"/>
<path d="M471.108 211.972L495.992 258.585L618.565 215.525L572.892 118.397L471.108 211.972Z" fill="#FFE600" stroke="black"/>
<path d="M280.993 151.487L333.506 157.351L367.374 31.9268L261.448 14.6134L280.993 151.487Z" fill="#FFE600" stroke="black"/>
<path d="M137.808 231.475L173.193 192.233L91.0479 91.5829L15.2166 167.541L137.808 231.475Z" fill="#FFE600" stroke="black"/>
<path d="M332.5 305.5C332.5 313.274 330.177 320.293 326.447 325.356C322.716 330.419 317.602 333.5 312 333.5C306.398 333.5 301.284 330.419 297.553 325.356C293.823 320.293 291.5 313.274 291.5 305.5C291.5 297.726 293.823 290.707 297.553 285.644C301.284 280.581 306.398 277.5 312 277.5C317.602 277.5 322.716 280.581 326.447 285.644C330.177 290.707 332.5 297.726 332.5 305.5Z" fill="white" stroke="black"/>
<path d="M324.5 305.5C324.5 309.41 323.352 312.93 321.52 315.46C319.687 317.99 317.199 319.5 314.5 319.5C311.801 319.5 309.313 317.99 307.48 315.46C305.648 312.93 304.5 309.41 304.5 305.5C304.5 301.59 305.648 298.07 307.48 295.54C309.313 293.01 311.801 291.5 314.5 291.5C317.199 291.5 319.687 293.01 321.52 295.54C323.352 298.07 324.5 301.59 324.5 305.5Z" fill="black" stroke="black"/>
<path d="M420.5 305.5C420.5 313.274 418.177 320.293 414.447 325.356C410.716 330.419 405.602 333.5 400 333.5C394.398 333.5 389.284 330.419 385.553 325.356C381.823 320.293 379.5 313.274 379.5 305.5C379.5 297.726 381.823 290.707 385.553 285.644C389.284 280.581 394.398 277.5 400 277.5C405.602 277.5 410.716 280.581 414.447 285.644C418.177 290.707 420.5 297.726 420.5 305.5Z" fill="white" stroke="black"/>
<path d="M415.5 305.5C415.5 309.41 414.352 312.93 412.52 315.46C410.687 317.99 408.199 319.5 405.5 319.5C402.801 319.5 400.313 317.99 398.48 315.46C396.648 312.93 395.5 309.41 395.5 305.5C395.5 301.59 396.648 298.07 398.48 295.54C400.313 293.01 402.801 291.5 405.5 291.5C408.199 291.5 410.687 293.01 412.52 295.54C414.352 298.07 415.5 301.59 415.5 305.5Z" fill="black" stroke="black"/>
<mask id="path-12-inside-1_461_149" fill="white">
<path fill-rule="evenodd" clip-rule="evenodd" d="M325 353C325.217 365.119 339.461 374.896 357 374.896C374.539 374.896 388.783 365.119 389 353H325Z"/>
</mask>
<path fill-rule="evenodd" clip-rule="evenodd" d="M325 353C325.217 365.119 339.461 374.896 357 374.896C374.539 374.896 388.783 365.119 389 353H325Z" fill="#FE5151"/>
<path d="M325 353V351H322.964L323 353.036L325 353ZM389 353L391 353.036L391.036 351H389V353ZM357 372.896C348.584 372.896 341.043 370.547 335.634 366.843C330.217 363.132 327.093 358.194 327 352.964L323 353.036C323.124 359.925 327.231 365.935 333.374 370.143C339.526 374.357 347.877 376.896 357 376.896V372.896ZM387 352.964C386.907 358.194 383.783 363.132 378.366 366.843C372.957 370.547 365.416 372.896 357 372.896V376.896C366.123 376.896 374.474 374.357 380.626 370.143C386.769 365.935 390.876 359.925 391 353.036L387 352.964ZM389 351H325V355H389V351Z" fill="black" mask="url(#path-12-inside-1_461_149)"/>
</svg>
