<svg width="1248" height="1021" viewBox="0 0 1248 1021" fill="none" xmlns="http://www.w3.org/2000/svg">
<g clip-path="url(#clip0_385_338)">
<path d="M2.00003 458.5C2.00004 356.342 71.1902 263.511 183.793 196.112C296.354 128.737 451.987 87.0001 624 87.0001C796.014 87.0001 951.646 128.737 1064.21 196.112C1176.81 263.511 1246 356.342 1246 458.5C1246 560.658 1176.81 653.489 1064.21 720.888C951.646 788.263 796.014 830 624 830C451.987 830 296.354 788.263 183.793 720.888C71.1902 653.489 2.00002 560.658 2.00003 458.5Z" fill="#F5CE54" stroke="#B58900" stroke-width="4"/>
<path d="M185.36 687.75C115.363 687.75 58.6196 744.493 58.6196 814.49C58.6196 884.487 115.363 941.23 185.36 941.23C255.356 941.23 312.1 884.487 312.1 814.49C312.1 744.493 255.356 687.75 185.36 687.75Z" fill="black"/>
<path d="M185.36 756.18C153.156 756.18 127.05 782.286 127.05 814.49C127.05 846.694 153.156 872.8 185.36 872.8C217.564 872.8 243.67 846.694 243.67 814.49C243.67 782.286 217.564 756.18 185.36 756.18Z" fill="#F74D66"/>
<path d="M1063.84 687.75C993.844 687.75 937.1 744.494 937.1 814.49C937.1 884.487 993.844 941.23 1063.84 941.23C1133.84 941.23 1190.58 884.487 1190.58 814.49C1190.58 744.494 1133.84 687.75 1063.84 687.75Z" fill="white" stroke="black" stroke-width="4" stroke-miterlimit="10"/>
<path d="M1063.84 756.18C1031.64 756.18 1005.53 782.286 1005.53 814.49C1005.53 846.694 1031.64 872.8 1063.84 872.8C1096.04 872.8 1122.15 846.694 1122.15 814.49C1122.15 782.286 1096.04 756.18 1063.84 756.18Z" fill="#F74D66"/>
<path d="M422.459 892.39L402.259 908.42L378.349 934.86L359.399 963.44L346.849 988.39L337.139 1013.43L331.629 987.36L326.199 954.92L322.049 923.79L318.689 892.39L316.309 864.15L315.779 856.3L357.209 872.8L391.819 883.99L422.459 892.39Z" fill="#E0E0E0"/>
<path d="M937.09 856.3L934.68 887.05L929.86 931.6L924.5 968.83L915.74 1013.43L908.86 995.03L893.89 964.18L874.52 934.86L854 911.65L830.41 892.39L850.8 886.75L895.67 872.8L937.09 856.3Z" fill="#E0E0E0"/>
<path d="M337.141 1013.43L331.631 987.36L325.011 946.6L320.501 910.06L315.791 856.3L357.221 872.8C357.221 872.8 331.501 906.14 337.151 1013.44" fill="#B5B5B5"/>
<path d="M915.74 1013.43L921.06 988.37L926.31 957.34L930.27 928.33L933.47 891.83L937.09 856.3" fill="#B5B5B5"/>
<path d="M937.09 856.3L895.66 872.8C895.66 872.8 925.49 913.67 915.73 1013.44" fill="#B5B5B5"/>
<path d="M422.459 892.39C422.459 892.39 366.779 925.34 337.129 1013.43C321.039 945.67 315.769 856.29 315.769 856.29L357.199 872.79L402.069 886.74L422.459 892.38L422.459 892.39Z" stroke="black" stroke-width="4" stroke-miterlimit="10"/>
<path d="M830.41 892.39C830.41 892.39 886.09 925.34 915.74 1013.43C931.83 945.67 937.1 856.29 937.1 856.29L895.67 872.79L850.8 886.74L830.41 892.38L830.41 892.39Z" stroke="black" stroke-width="4" stroke-miterlimit="10"/>
<path d="M624.01 917C967.53 917 1246.01 711.72 1246.01 458.5L1.9998 458.5C1.99977 711.72 280.48 917 624 917L624.01 917Z" fill="white" stroke="black" stroke-width="4" stroke-miterlimit="10"/>
<path d="M333.83 864.15C333.83 864.15 366.54 837.25 325.86 820.3C285.18 803.35 228.71 791.51 221.94 762.42C215.17 733.33 164.22 639.89 85.2199 687.74C95.2299 700.05 114.36 721.19 114.36 721.19L155.42 760.02L190.63 787.39L242.83 820.02L283.3 842.16L333.82 864.15L333.83 864.15Z" fill="black"/>
<path d="M1201.27 629.56C1201.27 629.56 1089.33 618.14 1085.94 553.77C1082.55 489.4 1053.19 483.75 1037.38 476.97C1021.57 470.19 1029.47 458.51 1029.47 458.51L1246.01 458.51L1244.33 492.45L1238.37 530.56L1227.18 570.92L1208.76 616.74L1201.27 629.57L1201.27 629.56Z" fill="black"/>
<path d="M1169.38 884.69C1169.38 884.69 1145.51 869.44 1156.24 854.76C1166.97 840.08 1181.37 836.97 1179.39 818.34C1177.41 799.71 1189.39 797.15 1189.39 797.15L1190.57 814.51L1189.24 832.94L1186.03 848.27L1180.56 863.98L1169.38 884.7L1169.38 884.69Z" fill="black"/>
<path d="M705.09 648.63C705.09 648.63 628.58 693.24 542.97 648.63C457.36 604.02 440.96 599.78 359.9 589.34C278.84 578.89 358.99 526.09 430.03 525.53C501.07 524.97 747.45 503.51 830.79 534.57C914.13 565.63 922.78 569.52 838.99 593.13C755.2 616.74 770.68 607.7 705.1 648.64L705.09 648.63Z" fill="#EB9D28" stroke="black" stroke-width="5.08" stroke-miterlimit="10"/>
<path d="M325.86 571.23C362.88 562.72 413.17 562.8 521.1 576.35C629.03 589.9 644.06 581.43 745.16 565.34C846.26 549.25 896.67 570.74 896.67 570.74" stroke="black" stroke-width="5.08" stroke-miterlimit="10"/>
<path d="M897.71 571.23L875.72 566.32C875.72 566.32 836.76 560.11 836.33 560.11C835.9 560.11 794.68 559.35 794.68 559.35L760.23 562.79L712.65 571.83L671.71 578.75L630.63 582.7L597.59 583.1L564.13 580.86L535.61 577.61L492.83 572.95L458.67 569.56L419.99 566.45L386.39 564.76L357.31 565.04C357.31 565.04 332.6 569.84 332.18 569.98C331.76 570.12 325.85 570.96 325.85 570.96L327.81 562.5C327.81 562.5 405.65 547.35 450.45 555.25C495.25 563.15 554.73 566.54 585.6 564.29C616.47 562.04 694.4 557.14 714.35 555.25C734.3 553.36 866.44 539.06 887.15 557.13C892.48 560.66 895.9 563.8 895.9 563.8L897.7 571.21L897.71 571.23Z" fill="#AD7121"/>
<path d="M707.9 648.63C707.9 648.63 631.39 693.24 545.78 648.63C460.17 604.02 443.77 599.78 362.71 589.34C281.65 578.89 361.8 526.09 432.84 525.53C503.88 524.97 750.26 503.51 833.599 534.57C916.939 565.63 925.59 569.52 841.8 593.13C758.01 616.74 773.49 607.7 707.91 648.64L707.9 648.63Z" stroke="black" stroke-width="5.08" stroke-miterlimit="10"/>
<path d="M328.669 571.23C365.689 562.72 415.98 562.8 523.91 576.35C631.84 589.9 646.869 581.43 747.969 565.34C849.069 549.25 899.479 570.74 899.479 570.74" stroke="black" stroke-width="5.08" stroke-miterlimit="10"/>
<path d="M300.709 627.45C263.436 627.45 233.219 657.666 233.219 694.94C233.219 732.214 263.436 762.43 300.709 762.43C337.983 762.43 368.199 732.214 368.199 694.94C368.199 657.666 337.983 627.45 300.709 627.45Z" fill="white" stroke="black" stroke-width="4.28" stroke-miterlimit="10"/>
<path d="M300.709 655.78C286.819 655.78 275.559 672.887 275.559 693.99C275.559 715.093 286.819 732.2 300.709 732.2C314.599 732.2 325.859 715.093 325.859 693.99C325.859 672.887 314.599 655.78 300.709 655.78Z" fill="black"/>
<path d="M292.009 696C287.204 696 283.309 699.895 283.309 704.7C283.309 709.505 287.204 713.4 292.009 713.4C296.814 713.4 300.709 709.505 300.709 704.7C300.709 699.895 296.814 696 292.009 696Z" fill="white"/>
<path d="M919.039 629.56C881.766 629.56 851.549 659.776 851.549 697.05C851.549 734.324 881.766 764.54 919.039 764.54C956.313 764.54 986.529 734.324 986.529 697.05C986.529 659.776 956.313 629.56 919.039 629.56Z" fill="white" stroke="black" stroke-width="4.28" stroke-miterlimit="10"/>
<path d="M919.039 657.89C905.15 657.89 893.889 674.997 893.889 696.1C893.889 717.203 905.149 734.31 919.039 734.31C932.929 734.31 944.189 717.203 944.189 696.1C944.189 674.997 932.929 657.89 919.039 657.89Z" fill="black"/>
<path d="M910.329 698.1C905.524 698.1 901.629 701.995 901.629 706.8C901.629 711.605 905.524 715.5 910.329 715.5C915.134 715.5 919.029 711.605 919.029 706.8C919.029 701.995 915.134 698.1 910.329 698.1Z" fill="white"/>
<path d="M629.43 713.67L629.87 713.67C631.515 713.67 632.85 712.336 632.85 710.69L632.85 693.31C632.85 691.664 631.515 690.33 629.87 690.33L629.43 690.33C627.784 690.33 626.45 691.664 626.45 693.31L626.45 710.69C626.45 712.336 627.784 713.67 629.43 713.67Z" fill="black"/>
<path d="M611.18 713.67L611.62 713.67C613.265 713.67 614.6 712.336 614.6 710.69L614.6 693.31C614.6 691.664 613.265 690.33 611.62 690.33L611.18 690.33C609.534 690.33 608.2 691.664 608.2 693.31L608.2 710.69C608.2 712.336 609.534 713.67 611.18 713.67Z" fill="black"/>
</g>
<defs>
<clipPath id="clip0_385_338">
<rect width="1248.01" height="1020.69" fill="white" transform="translate(1248.01 1020.69) rotate(-180)"/>
</clipPath>
</defs>
</svg>
