<svg width="514" height="42" viewBox="0 0 514 42" fill="none" xmlns="http://www.w3.org/2000/svg">
<path d="M10 11.2011L13.5539 12.2064L17.1078 13.4735L20.6617 14.9648L24.2156 16.6358L27.7695 18.4368L31.3233 20.3142L34.8772 22.2119L38.4311 24.0736L41.985 25.8437L45.5389 27.4696L49.0928 28.9028L52.6467 30.1006L56.2005 31.0274L59.7544 31.6556L63.3083 31.9665L66.8622 31.9507L70.4161 31.6088L73.97 30.951L77.5238 29.9968L81.0777 28.7747L84.6316 27.3211L88.1855 25.6792L91.7394 23.8979L95.2933 22.0304L98.8472 20.1321L102.401 18.2597L105.955 16.4689L109.509 14.8131L113.063 13.3415L116.617 12.0979L120.17 11.1196L123.724 10.4354L127.278 10.0659L130.832 10.022L134.386 10.3051L137.94 10.9066L141.494 11.8088L145.048 12.9847L148.602 14.3993L152.155 16.0104L155.709 17.7702L159.263 19.6262L162.817 21.523L166.371 23.4043L169.925 25.214L173.479 26.8982L177.033 28.4067L180.587 29.6947L184.14 30.7237L187.694 31.4631L191.248 31.891L194.802 31.9944L198.356 31.7705L201.91 31.2258L205.464 30.3765L209.018 29.248L212.571 27.8739L216.125 26.295L219.679 24.5585L223.233 22.716L226.787 20.8224L230.341 18.934L233.895 17.1072L237.449 15.3964L241.003 13.8524L244.556 12.5213L248.11 11.4426L251.664 10.6487L255.218 10.163L258.772 10L262.326 10.1646L265.88 10.652L269.434 11.4475L272.988 12.5275L276.541 13.8598L280.095 15.4047L283.649 17.1163L287.203 18.9436L290.757 20.8321L294.311 22.7256L297.865 24.5677L301.419 26.3036L304.972 27.8815L308.526 29.2544L312.08 30.3816L315.634 31.2293L319.188 31.7724L322.742 31.9947L326.296 31.8896L329.85 31.4601L333.404 30.7191L336.957 29.6887L340.511 28.3995L344.065 26.89L347.619 25.205L351.173 23.3948L354.727 21.5133L358.281 19.6165L361.835 17.7609L365.389 16.0018L368.942 14.3915L372.496 12.978L376.05 11.8035L379.604 10.9028L383.158 10.3028L386.712 10.0214L390.266 10.067L393.82 10.4381L397.373 11.1238L400.927 12.1037L404.481 13.3485L408.035 14.8211L411.589 16.4778L415.143 18.2691L418.697 20.1418L422.251 22.04L425.805 23.9073L429.358 25.688L432.912 27.3291L436.466 28.7816L440.02 30.0025L443.574 30.9552L447.128 31.6114L450.682 31.9516L454.236 31.9657L457.79 31.6532L461.343 31.0234L464.897 30.0951L468.451 28.896L472.005 27.4617L475.559 25.835L479.113 24.0642L482.667 22.2022L486.221 20.3044L489.774 18.4274L493.328 16.6269L496.882 14.9567L500.436 13.4664L503.99 12.2006" stroke="white" stroke-width="20" stroke-miterlimit="10" stroke-linecap="round" stroke-linejoin="round"/>
</svg>
