<svg width="394" height="42" viewBox="0 0 394 42" fill="none" xmlns="http://www.w3.org/2000/svg">
<path d="M10 10.022L13.5538 10.3051L17.1077 10.9066L20.6616 11.8088L24.2155 12.9847L27.7694 14.3993L31.3232 16.0104L34.8772 17.7702L38.431 19.6262L41.9849 21.523L45.5388 23.4043L49.0927 25.214L52.6466 26.8982L56.2004 28.4067L59.7544 29.6947L63.3082 30.7237L66.8621 31.4631L70.416 31.891L73.9698 31.9944L77.5238 31.7705L81.0776 31.2258L84.6316 30.3765L88.1854 29.248L91.7393 27.8739L95.2932 26.295L98.847 24.5585L102.401 22.716L105.955 20.8224L109.509 18.934L113.063 17.1072L116.616 15.3964L120.17 13.8524L123.724 12.5213L127.278 11.4426L130.832 10.6487L134.386 10.163L137.94 10L141.494 10.1646L145.048 10.652L148.601 11.4475L152.155 12.5275L155.709 13.8598L159.263 15.4047L162.817 17.1163L166.371 18.9436L169.925 20.8321L173.479 22.7256L177.033 24.5677L180.586 26.3036L184.14 27.8815L187.694 29.2544L191.248 30.3816L194.802 31.2293L198.356 31.7724L201.91 31.9947L205.464 31.8896L209.017 31.4601L212.571 30.7191L216.125 29.6887L219.679 28.3995L223.233 26.89L226.787 25.205L230.341 23.3948L233.895 21.5133L237.449 19.6165L241.002 17.7609L244.556 16.0018L248.11 14.3915L251.664 12.978L255.218 11.8035L258.772 10.9028L262.326 10.3028L265.88 10.0214L269.434 10.067L272.987 10.4381L276.541 11.1238L280.095 12.1037L283.649 13.3485L287.203 14.8211L290.757 16.4778L294.311 18.2691L297.865 20.1418L301.418 22.04L304.972 23.9073L308.526 25.688L312.08 27.3291L315.634 28.7816L319.188 30.0025L322.742 30.9552L326.296 31.6114L329.85 31.9516L333.403 31.9657L336.957 31.6532L340.511 31.0234L344.065 30.0951L347.619 28.896L351.173 27.4617L354.727 25.835L358.281 24.0642L361.835 22.2022L365.388 20.3044L368.942 18.4274L372.496 16.6269L376.05 14.9567L379.604 13.4664L383.158 12.2006" stroke="white" stroke-width="20" stroke-miterlimit="10" stroke-linecap="round" stroke-linejoin="round"/>
</svg>
