<svg width="1438" height="520" viewBox="0 0 1438 520" fill="none" xmlns="http://www.w3.org/2000/svg">
<path d="M719 520C1066.39 520 1348 314.791 1348 61.6525C1348 49.1759 1347.32 36.8157 1345.97 24.5908L1345.32 24.2731L1345.12 24.1777L1341.5 22.3411L1338 20.5379L1337.94 20.5093L1334.53 18.7759L1331.22 17.1665L1328.04 15.7368L1325 14.5204L1322.09 13.5389L1319.31 12.8014L1316.65 12.3062L1314.07 12.0462L1311.52 12.0148L1308.96 12.2108L1306.32 12.6397L1303.58 13.3094L1300.71 14.2236L1297.71 15.3764L1294.56 16.7498L1291.29 18.3135L1287.93 20.004L1284.37 21.8344L1284.34 21.8515L1280.78 23.6672L1280.62 23.7463L1277.07 25.4931L1276.78 25.6286L1273.23 27.2546C1273.09 27.318 1272.95 27.3785 1272.81 27.4363L1269.25 28.893C1269.07 28.9684 1268.88 29.0388 1268.69 29.1045L1265.14 30.3486C1264.91 30.4288 1264.68 30.5017 1264.44 30.567L1260.89 31.5614C1260.61 31.6374 1260.34 31.7034 1260.06 31.759L1256.51 32.4741C1256.2 32.5359 1255.89 32.585 1255.58 32.6213L1252.02 33.0358C1251.69 33.0743 1251.36 33.0983 1251.02 33.1078L1247.47 33.2093C1247.13 33.2189 1246.79 33.2136 1246.45 33.1932L1242.9 32.9787C1242.57 32.959 1242.25 32.9252 1241.92 32.8774L1238.37 32.3533C1238.22 32.332 1238.08 32.3079 1237.93 32.2811C1237.78 32.2522 1237.62 32.2201 1237.47 32.1848L1233.91 31.3667C1233.65 31.3064 1233.39 31.2369 1233.13 31.1582L1229.58 30.0705C1229.36 30.0039 1229.14 29.9309 1228.93 29.8515L1225.38 28.5265C1225.2 28.4629 1225.03 28.3952 1224.87 28.3236L1221.31 26.8009L1221.18 26.7419L1220.94 26.6342L1217.38 24.959L1217.14 24.8428L1213.59 23.0652L1213.47 23.008L1209.93 21.1864L1209.92 21.1808L1206.51 19.4319L1206.37 19.3639L1203.08 17.7331L1199.85 16.2338L1196.76 14.9366L1193.8 13.8679L1190.98 13.0413L1188.28 12.4586L1185.68 12.1141L1183.12 12L1180.57 12.1129L1177.96 12.4563L1175.26 13.0377L1172.44 13.863L1169.49 14.9303L1166.39 16.2264L1163.17 17.7252L1159.88 19.3549L1159.74 19.4232L1156.33 21.1712L1156.32 21.1772L1152.78 22.9986L1152.66 23.0555L1149.11 24.8335L1148.87 24.9494L1145.31 26.6252C1145.19 26.6829 1145.06 26.7383 1144.94 26.7917L1141.38 28.3152L1141.14 28.4188L1140.88 28.5182L1137.32 29.8442L1137.04 29.944C1136.92 29.9858 1136.8 30.0255 1136.68 30.0632L1133.12 31.1522C1132.86 31.2309 1132.6 31.3005 1132.34 31.3608L1128.78 32.1804C1128.66 32.2102 1128.53 32.2377 1128.4 32.263C1128.23 32.2955 1128.06 32.3242 1127.89 32.3492L1124.33 32.8749L1124.01 32.9183C1123.79 32.9439 1123.57 32.9633 1123.36 32.9765L1119.8 33.1926C1119.46 33.2131 1119.13 33.2186 1118.79 33.2091L1115.23 33.1093C1114.9 33.1 1114.57 33.076 1114.23 33.0376L1110.68 32.6248C1110.37 32.5886 1110.06 32.5396 1109.75 32.4779L1106.19 31.7643L1105.9 31.7017C1105.72 31.661 1105.54 31.6161 1105.37 31.5669L1101.81 30.5739C1101.58 30.5085 1101.35 30.4356 1101.12 30.3554L1097.56 29.1125C1097.37 29.0469 1097.19 28.9764 1097 28.901L1093.45 27.4452C1093.3 27.3874 1093.16 27.3268 1093.03 27.2634L1089.47 25.6381L1089.18 25.5023L1085.63 23.7559L1085.47 23.6766L1081.88 21.8437L1078.41 20.0588L1078.32 20.0132L1074.96 18.3219L1071.68 16.7572L1068.54 15.3828L1065.53 14.2288L1062.66 13.3136L1059.92 12.6425L1057.29 12.2123L1054.72 12.0152L1052.17 12.0455L1049.59 12.3043L1046.93 12.7982L1044.16 13.5345L1041.25 14.5149L1038.21 15.7304L1035.03 17.1588L1031.72 18.7674L1028.31 20.4999L1028.25 20.5288L1024.75 22.3318L1024.68 22.366L1021.13 24.1683L1020.93 24.2634L1017.38 25.9823C1017.27 26.0338 1017.16 26.0836 1017.06 26.1317L1013.5 27.7162C1013.35 27.7834 1013.2 27.8473 1013.04 27.9078L1009.49 29.3106C1009.29 29.3881 1009.09 29.4601 1008.89 29.5265L1005.33 30.7059C1005.09 30.7859 1004.85 30.8579 1004.6 30.9216L1001.05 31.8424L1000.78 31.9087C1000.58 31.9539 1000.39 31.9941 1000.19 32.0291L996.636 32.6639C996.321 32.7202 996.004 32.7632 995.685 32.7928L992.128 33.1227C991.793 33.1537 991.457 33.1699 991.122 33.1714L987.566 33.1865C987.229 33.188 986.892 33.1746 986.557 33.1463L983 32.8463C982.68 32.8192 982.359 32.7786 982.042 32.7244L978.485 32.1182C978.195 32.0686 977.905 32.0078 977.62 31.9358L974.062 31.0414C973.813 30.9785 973.564 30.907 973.319 30.8272L969.763 29.6712C969.558 29.6046 969.355 29.5323 969.154 29.4542L965.598 28.0711C965.439 28.0097 965.283 27.9447 965.127 27.8763L961.571 26.3073C961.458 26.2577 961.347 26.2064 961.237 26.1532L957.681 24.4451L957.476 24.3443L953.92 22.5478L953.882 22.5295L953.839 22.5075L950.329 20.699L950.283 20.6762L946.857 18.9305L943.531 17.3055L940.339 15.8584L937.283 14.6217L934.364 13.6181L931.579 12.8583L928.909 12.3413L926.321 12.0603L923.772 12.0082L921.21 12.1834L918.582 12.5908L915.852 13.2385L912.996 14.1305L910.003 15.2623L906.872 16.6167L903.607 18.1647L900.267 19.8404L900.165 19.8919L896.71 21.6694L896.688 21.6807L893.132 23.5L892.985 23.5736L889.428 25.3289L889.154 25.4596L885.597 27.0987C885.464 27.1607 885.327 27.22 885.191 27.2767L881.634 28.7507C881.455 28.8252 881.274 28.8951 881.09 28.9603L877.533 30.2254C877.308 30.3055 877.081 30.3785 876.851 30.4443L873.294 31.4627C873.026 31.5395 872.754 31.6065 872.481 31.6635L868.925 32.4049C868.704 32.451 868.483 32.4905 868.259 32.5233L868.005 32.5579L864.449 33.0003C864.119 33.0412 863.788 33.0678 863.456 33.08L859.899 33.2101C859.563 33.2225 859.224 33.2199 858.886 33.2022L855.33 33.0163C855.002 32.9992 854.674 32.9678 854.347 32.9222L850.791 32.4258C850.487 32.3834 850.186 32.3289 849.887 32.2623L846.331 31.4701C846.065 31.4108 845.801 31.3421 845.54 31.264L841.984 30.1995C841.761 30.1332 841.541 30.0601 841.325 29.9803L837.768 28.6754C837.593 28.6112 837.42 28.5427 837.248 28.47L833.691 26.9635C833.562 26.909 833.434 26.852 833.308 26.7929L829.752 25.1296L829.501 25.0084L825.945 23.2379L825.82 23.1751L818.83 19.5873L818.707 19.5248L815.398 17.8784L812.157 16.362L809.051 15.0452L806.082 13.9552L803.25 13.1063L800.541 12.5016L797.928 12.1358L795.37 12.001L792.819 12.0932L790.22 12.4153L787.531 12.9748L784.723 13.7779L781.78 14.8237L778.699 16.0998L775.482 17.5814L772.136 19.2326L768.676 21.0025L768.653 21.0141L765.12 22.8316L765.019 22.8828L761.462 24.6676L761.235 24.7784L757.679 26.4656C757.56 26.5218 757.44 26.5759 757.32 26.628L753.763 28.1674C753.6 28.238 753.436 28.3048 753.269 28.3677L749.713 29.7134C749.504 29.7924 749.293 29.8653 749.081 29.932L745.524 31.0439C745.271 31.1231 745.014 31.1934 744.757 31.2547L741.199 32.0999C741.073 32.1301 740.946 32.158 740.818 32.1837C740.65 32.2174 740.483 32.2474 740.315 32.2736L736.759 32.8267C736.437 32.8768 736.113 32.9131 735.788 32.9354L732.232 33.1801C731.895 33.2032 731.557 33.2115 731.22 33.2047L727.663 33.1336C727.33 33.1269 726.996 33.1056 726.663 33.0697L723.107 32.6849C722.792 32.6509 722.479 32.6039 722.169 32.544L718.613 31.857C718.332 31.8028 718.053 31.7381 717.779 31.663L714.222 30.6943C713.984 30.6293 713.748 30.5567 713.513 30.4765L709.957 29.2549C709.765 29.1889 709.575 29.1178 709.387 29.0417L705.831 27.6036L705.617 27.5141L705.397 27.4183L701.841 25.8065L701.543 25.666L697.986 23.9285L697.817 23.8438L694.261 22.0323L694.215 22.0092L690.737 20.2178L690.658 20.1778L687.281 18.4722L683.993 16.8921L680.837 15.499L677.818 14.3241L674.937 13.3866L672.184 12.6934L669.54 12.2417L666.969 12.0236L664.422 12.0334L661.846 12.2712L659.194 12.7434L656.432 13.4575L653.539 14.4158L650.507 15.6103L647.34 17.021L644.041 18.6149L640.58 20.3684L637.092 22.1657L637.035 22.1942L633.479 24.0014L633.298 24.0912L629.741 25.8198L629.431 25.9647L625.875 27.5634C625.728 27.6293 625.581 27.6922 625.431 27.7519L621.875 29.173C621.682 29.2498 621.487 29.3214 621.291 29.3876L617.735 30.5888C617.498 30.669 617.259 30.7414 617.015 30.8057L613.459 31.7513L613.179 31.8218C612.992 31.8666 612.803 31.9067 612.615 31.9419L609.058 32.6036C608.745 32.6618 608.431 32.7069 608.113 32.7388L604.557 33.0969C604.334 33.1194 604.11 33.1353 603.886 33.1446L603.555 33.1535L599.999 33.1975C599.66 33.2017 599.324 33.1909 598.988 33.1653L595.432 32.8937C595.108 32.869 594.786 32.8306 594.466 32.7785L590.909 32.1995C590.616 32.1517 590.323 32.0922 590.034 32.0215L586.478 31.1523C586.222 31.0902 585.97 31.0193 585.721 30.9397L582.164 29.8063C581.955 29.7396 581.749 29.667 581.544 29.5884L577.988 28.2244C577.825 28.1621 577.664 28.0962 577.504 28.0266L573.948 26.4727C573.832 26.4218 573.716 26.369 573.602 26.3143L570.045 24.6167L569.937 24.5644L569.829 24.5108L566.272 22.7201L566.182 22.6742L562.66 20.8608L562.625 20.8437L559.182 19.0854L555.846 17.4472L552.641 15.9817L549.572 14.7247L546.641 13.6994L543.843 12.9173L541.163 12.3785L538.571 12.0764L536.021 12.0036L533.462 12.158L530.841 12.544L528.123 13.1695L525.279 14.0393L522.298 15.1497L519.179 16.4847L515.927 18.0167L512.602 19.6776L512.489 19.7347L509.046 21.5048L509.035 21.5104L505.479 23.3328L505.344 23.4008L501.787 25.1642L501.525 25.2901L497.968 26.9418C497.838 27.0023 497.707 27.0604 497.573 27.116L494.017 28.607C493.842 28.6806 493.664 28.7498 493.486 28.8145L489.929 30.1002C489.708 30.1802 489.484 30.2532 489.259 30.3194L485.702 31.3616C485.437 31.4391 485.17 31.5071 484.901 31.5653L481.345 32.3329C481.042 32.398 480.738 32.4509 480.432 32.4913L476.876 32.9616C476.548 33.0049 476.218 33.0341 475.889 33.0488L472.332 33.2076C471.994 33.2227 471.656 33.2228 471.318 33.2079L467.761 33.0506C467.432 33.036 467.102 33.0071 466.774 32.9639L463.218 32.4952C462.911 32.4548 462.607 32.4021 462.306 32.3371L458.749 31.5708C458.479 31.5127 458.212 31.4449 457.946 31.3673L454.39 30.3265L454.077 30.2295C453.957 30.1908 453.838 30.15 453.719 30.1073L450.163 28.8228C449.983 28.758 449.805 28.6887 449.63 28.6151L446.074 27.1251C445.94 27.0695 445.808 27.0113 445.678 26.9506L442.121 25.2996L441.858 25.1735L438.302 23.4105L438.167 23.3422L434.611 21.52L434.599 21.5141L431.153 19.7436L431.042 19.6867L427.716 18.0248L424.463 16.492L421.345 15.1561L418.362 14.0443L415.518 13.1733L412.798 12.5466L410.178 12.1594L407.619 12.0038L405.068 12.0754L402.476 12.3764L399.797 12.9139L397 13.6948L394.069 14.7189L391.001 15.9747L387.798 17.4391L384.462 19.0764L380.985 20.8517L377.462 22.6648L377.373 22.7104L373.817 24.5014L373.71 24.5546L373.602 24.6071L370.045 26.3053C369.929 26.3599 369.815 26.4126 369.699 26.4634L366.142 28.0182C365.983 28.0877 365.823 28.1536 365.661 28.2158L362.104 29.5809C361.9 29.6594 361.692 29.7321 361.484 29.7987L357.928 30.9335C357.678 31.013 357.426 31.0839 357.172 31.1461L353.615 32.0168C353.327 32.0876 353.034 32.147 352.741 32.195L349.184 32.7755C349.027 32.8012 348.868 32.8236 348.709 32.8427C348.546 32.8624 348.383 32.8785 348.218 32.8911L344.662 33.1643C344.326 33.1901 343.99 33.201 343.651 33.197L340.095 33.1546C339.893 33.1522 339.69 33.1444 339.488 33.1312C339.356 33.1226 339.224 33.1117 339.092 33.0985L335.535 32.7419C335.219 32.7102 334.905 32.6652 334.592 32.6071L331.035 31.9469C330.75 31.8942 330.469 31.8306 330.19 31.7565L326.633 30.8124C326.39 30.748 326.151 30.6757 325.912 30.5955L322.356 29.3955C322.16 29.3292 321.965 29.2576 321.773 29.1808L318.216 27.7607C318.066 27.701 317.918 27.6381 317.771 27.572L314.214 25.9741L313.904 25.829L310.348 24.1008L310.226 24.041L310.167 24.0108L306.61 22.2039L306.554 22.175L303.064 20.3774L302.998 20.3432L299.603 18.6236L296.303 17.0286L293.135 15.6171L290.104 14.4214L287.209 13.4618L284.447 12.7464L281.794 12.273L279.218 12.034L276.671 12.0231L274.099 12.24L271.455 12.6905L268.705 13.3825L265.823 14.3187L262.805 15.4924L259.651 16.8845L256.361 18.4638L252.986 20.1685L252.907 20.2088L249.43 21.9999L249.385 22.0227L245.829 23.8344L245.659 23.9188L242.103 25.6568L241.805 25.797L238.248 27.4096C238.106 27.4742 237.962 27.5359 237.817 27.5947L234.26 29.0338C234.073 29.1099 233.883 29.181 233.69 29.2469L230.134 30.4697C229.901 30.5499 229.665 30.6226 229.428 30.6875L225.871 31.6576C225.595 31.7328 225.316 31.7976 225.036 31.8519L221.479 32.5403C221.169 32.6004 220.858 32.6475 220.543 32.6816L216.987 33.068L216.703 33.0951C216.464 33.115 216.226 33.1275 215.987 33.1324L212.43 33.2051C212.093 33.212 211.755 33.2039 211.418 33.1809L207.862 32.9378C207.537 32.9156 207.213 32.8795 206.891 32.8296L203.335 32.2779C203.037 32.2318 202.742 32.174 202.449 32.1045L198.893 31.2608C198.635 31.1995 198.378 31.1292 198.124 31.0501L194.568 29.9394C194.356 29.8728 194.143 29.7999 193.934 29.7208L190.378 28.3762C190.212 28.3132 190.047 28.2464 189.884 28.1757L186.327 26.6372C186.206 26.5851 186.087 26.5309 185.968 26.4746L182.412 24.7881L182.183 24.677L178.627 22.8926L178.526 22.841L174.992 21.0233L174.969 21.0119L171.508 19.2412L168.161 17.5893L164.944 16.1069L161.862 14.8296L158.919 13.7826L156.11 12.9783L153.42 12.4176L150.82 12.0943L148.268 12.0009L145.712 12.1345L143.101 12.4992L140.391 13.1026L137.559 13.9502L134.592 15.0392L131.486 16.3548L128.246 17.8701L124.876 19.5475L117.826 23.1657L117.701 23.2282L114.144 24.9991L113.895 25.1199L110.339 26.7839C110.211 26.8431 110.084 26.8999 109.956 26.9543L106.399 28.4618C106.227 28.5345 106.055 28.6029 105.88 28.6671L102.324 29.9731C102.106 30.0528 101.886 30.1259 101.665 30.1923L98.1085 31.2581C97.8474 31.3362 97.5847 31.405 97.3192 31.4643L93.7627 32.258C93.463 32.3247 93.1618 32.3794 92.8591 32.4218L91.2389 32.6486C90.4169 42.2396 90 51.9106 90 61.6525C90 314.791 371.613 520 719 520Z" fill="#436BFC"/>
<path d="M10 11.1967L13.5539 10.4849L17.1078 10.0861L20.6617 10.0124L24.2155 10.266L27.7694 10.8392L31.3233 11.715L34.8772 12.8673L38.4311 14.2619L41.985 15.8571L45.5388 17.6054L49.0927 19.4549L52.6466 21.3504L56.2005 23.2354L59.7544 25.0539L63.3083 26.7516L66.8622 28.2781L70.416 29.5878L73.9699 30.6417L77.5238 31.4085L81.0777 31.8653L84.6316 31.9986L88.1855 31.8042L91.7393 31.2882L95.2932 30.4657L98.8471 29.3613L102.401 28.0079L105.955 26.4458L109.509 24.7215L113.063 22.8864L116.617 20.9951L120.17 19.104L123.724 17.2693L127.278 15.5457L130.832 13.9846L134.386 12.6324L137.94 11.5294L141.494 10.7084L145.048 10.1939L148.602 10.0013L152.155 10.1362L155.709 10.5947L159.263 11.363L162.817 12.4183L166.371 13.7292L169.925 15.2567L173.479 16.9551L177.033 18.7741L180.586 20.6594L184.14 22.5547L187.694 24.4038L191.248 26.1515L194.802 27.7458L198.356 29.1392L201.91 30.2902L205.464 31.1645L209.018 31.7361L212.571 31.988L216.125 31.9127L219.679 31.5123L223.233 30.7989L226.787 29.7936L230.341 28.5265L233.895 27.0352L237.449 25.3642L241.003 23.5632L244.556 21.6858L248.11 19.7881L251.664 17.9264L255.218 16.1563L258.772 14.5304L262.326 13.0972L265.88 11.8994L269.434 10.9726L272.987 10.3444L276.541 10.0335L280.095 10.0493L283.649 10.3912L287.203 11.049L290.757 12.0032L294.311 13.2253L297.865 14.6789L301.419 16.3208L304.972 18.1021L308.526 19.9696L312.08 21.8679L315.634 23.7403L319.188 25.5311L322.742 27.1869L326.296 28.6585L329.85 29.9021L333.404 30.8804L336.957 31.5646L340.511 31.9341L344.065 31.978L347.619 31.6949L351.173 31.0934L354.727 30.1912L358.281 29.0153L361.835 27.6007L365.388 25.9896L368.942 24.2298L372.496 22.3738L376.05 20.477L379.604 18.5957L383.158 16.786L386.712 15.1018L390.266 13.5933L393.82 12.3053L397.373 11.2763L400.927 10.5369L404.481 10.109L408.035 10.0056L411.589 10.2295L415.143 10.7742L418.697 11.6235L422.251 12.752L425.805 14.1261L429.358 15.705L432.912 17.4415L436.466 19.284L440.02 21.1776L443.574 23.066L447.128 24.8928L450.682 26.6036L454.236 28.1476L457.789 29.4787L461.343 30.5574L464.897 31.3513L468.451 31.837L472.005 32L475.559 31.8354L479.113 31.348L482.667 30.5525L486.221 29.4725L489.774 28.1402L493.328 26.5953L496.882 24.8837L500.436 23.0564L503.99 21.1679L507.544 19.2744L511.098 17.4323L514.652 15.6964L518.206 14.1185L521.759 12.7456L525.313 11.6184L528.867 10.7707L532.421 10.2276L535.975 10.0053L539.529 10.1104L543.083 10.5399L546.637 11.2809L550.19 12.3113L553.744 13.6005L557.298 15.11L560.852 16.795L564.406 18.6052L567.96 20.4867L571.514 22.3835L575.068 24.2391L578.622 25.9982L582.175 27.6085L585.729 29.022L589.283 30.1965L592.837 31.0972L596.391 31.6972L599.945 31.9786L603.499 31.933L607.053 31.5619L610.607 30.8762L614.16 29.8963L617.714 28.6515L621.268 27.1789L624.822 25.5222L628.376 23.7309L631.93 21.8582L635.484 19.96L639.038 18.0927L642.591 16.312L646.145 14.6709L649.699 13.2184L653.253 11.9975L656.807 11.0448L660.361 10.3886L663.915 10.0484L667.469 10.0343L671.023 10.3468L674.576 10.9766L678.13 11.9049L681.684 13.104L685.238 14.5383L688.792 16.165L692.346 17.9358L695.9 19.7978L699.454 21.6956L703.008 23.5726L706.561 25.3731L710.115 27.0433L713.669 28.5336L717.223 29.7994L720.777 30.8033L724.331 31.5151L727.885 31.9139L731.439 31.9876L734.992 31.734L738.546 31.1608L742.1 30.285L745.654 29.1327L749.208 27.7381L752.762 26.1429L756.316 24.3946L759.87 22.5451L763.424 20.6496L766.977 18.7646L770.531 16.9461L774.085 15.2484L777.639 13.7219L781.193 12.4122L784.747 11.3583L788.301 10.5915L791.855 10.1347L795.409 10.0014L798.962 10.1958L802.516 10.7118L806.07 11.5343L809.624 12.6387L813.178 13.9921L816.732 15.5542L820.286 17.2785L823.84 19.1136L827.393 21.0049L830.947 22.896L834.501 24.7307L838.055 26.4543L841.609 28.0154L845.163 29.3676L848.717 30.4706L852.271 31.2916L855.825 31.8061L859.378 31.9987L862.932 31.8638L866.486 31.4053L870.04 30.637L873.594 29.5817L877.148 28.2708L880.702 26.7433L884.256 25.0449L887.81 23.2259L891.363 21.3406L894.917 19.4453L898.471 17.5962L902.025 15.8485L905.579 14.2542L909.133 12.8608L912.687 11.7098L916.241 10.8355L919.794 10.2639L923.348 10.012L926.902 10.0873L930.456 10.4877L934.01 11.2011L937.564 12.2064L941.118 13.4735L944.672 14.9648L948.226 16.6358L951.779 18.4368L955.333 20.3142L958.887 22.2119L962.441 24.0736L965.995 25.8437L969.549 27.4696L973.103 28.9028L976.657 30.1006L980.211 31.0274L983.764 31.6556L987.318 31.9665L990.872 31.9507L994.426 31.6088L997.98 30.951L1001.53 29.9968L1005.09 28.7747L1008.64 27.3211L1012.2 25.6792L1015.75 23.8979L1019.3 22.0304L1022.86 20.1321L1026.41 18.2597L1029.96 16.4689L1033.52 14.8131L1037.07 13.3415L1040.63 12.0979L1044.18 11.1196L1047.73 10.4354L1051.29 10.0659L1054.84 10.022L1058.4 10.3051L1061.95 10.9066L1065.5 11.8088L1069.06 12.9847L1072.61 14.3993L1076.17 16.0104L1079.72 17.7702L1083.27 19.6262L1086.83 21.523L1090.38 23.4043L1093.93 25.214L1097.49 26.8982L1101.04 28.4067L1104.6 29.6947L1108.15 30.7237L1111.7 31.4631L1115.26 31.891L1118.81 31.9944L1122.37 31.7705L1125.92 31.2258L1129.47 30.3765L1133.03 29.248L1136.58 27.8739L1140.14 26.295L1143.69 24.5585L1147.24 22.716L1150.8 20.8224L1154.35 18.934L1157.9 17.1072L1161.46 15.3964L1165.01 13.8524L1168.57 12.5213L1172.12 11.4426L1175.67 10.6487L1179.23 10.163L1182.78 10L1186.34 10.1646L1189.89 10.652L1193.44 11.4475L1197 12.5275L1200.55 13.8598L1204.11 15.4047L1207.66 17.1163L1211.21 18.9436L1214.77 20.8321L1218.32 22.7256L1221.87 24.5677L1225.43 26.3036L1228.98 27.8815L1232.54 29.2544L1236.09 30.3816L1239.64 31.2293L1243.2 31.7724L1246.75 31.9947L1250.31 31.8896L1253.86 31.4601L1257.41 30.7191L1260.97 29.6887L1264.52 28.3995L1268.08 26.89L1271.63 25.205L1275.18 23.3948L1278.74 21.5133L1282.29 19.6165L1285.84 17.7609L1289.4 16.0018L1292.95 14.3915L1296.51 12.978L1300.06 11.8035L1303.61 10.9028L1307.17 10.3028L1310.72 10.0214L1314.28 10.067L1317.83 10.4381L1321.38 11.1238L1324.94 12.1037L1328.49 13.3485L1332.05 14.8211L1335.6 16.4778L1339.15 18.2691L1342.71 20.1418L1346.26 22.04L1349.81 23.9073L1353.37 25.688L1356.92 27.3291L1360.48 28.7816L1364.03 30.0025L1367.58 30.9552L1371.14 31.6114L1374.69 31.9516L1378.25 31.9657L1381.8 31.6532L1385.35 31.0234L1388.91 30.0951L1392.46 28.896L1396.02 27.4617L1399.57 25.835L1403.12 24.0642L1406.68 22.2022L1410.23 20.3044L1413.78 18.4274L1417.34 16.6269L1420.89 14.9567L1424.45 13.4664L1428 12.2006" stroke="white" stroke-width="20" stroke-miterlimit="10" stroke-linecap="round" stroke-linejoin="round"/>
</svg>
